<svg width="282" height="256" viewBox="0 0 282 256" fill="none" xmlns="http://www.w3.org/2000/svg">
<mask id="mask0_215_12202" style="mask-type:alpha" maskUnits="userSpaceOnUse" x="0" y="0" width="282" height="256">
<rect width="282" height="256" fill="#D9D9D9"/>
</mask>
<g mask="url(#mask0_215_12202)">
<ellipse cx="141" cy="214" rx="70" ry="20" fill="#FFF7E2"/>
<g opacity="0.8">
<path d="M146.139 172.25V175.294H135.9V172.25H146.139Z" fill="url(#paint0_linear_215_12202)" style="mix-blend-mode:hard-light"/>
<path d="M146.139 172.25V175.294H135.9V172.25H146.139Z" stroke="url(#paint1_linear_215_12202)" stroke-width="0.5"/>
<path d="M125.727 175.591L115.704 176.192L114.098 173.175L124.12 172.596L125.727 175.591Z" fill="url(#paint2_linear_215_12202)" style="mix-blend-mode:hard-light"/>
<path d="M125.727 175.591L115.704 176.192L114.098 173.175L124.12 172.596L125.727 175.591Z" stroke="url(#paint3_linear_215_12202)" stroke-width="0.5"/>
<path d="M105.744 177.07L96.292 178.213L93.1191 175.325L102.557 174.181L105.744 177.07Z" fill="url(#paint4_linear_215_12202)" style="mix-blend-mode:hard-light"/>
<path d="M105.744 177.07L96.292 178.213L93.1191 175.325L102.557 174.181L105.744 177.07Z" stroke="url(#paint5_linear_215_12202)" stroke-width="0.5"/>
<path d="M86.8291 179.685L78.2861 181.314L73.5762 178.635L82.1348 176.988L86.8291 179.685Z" fill="url(#paint6_linear_215_12202)" style="mix-blend-mode:hard-light"/>
<path d="M86.8291 179.685L78.2861 181.314L73.5762 178.635L82.1348 176.988L86.8291 179.685Z" stroke="url(#paint7_linear_215_12202)" stroke-width="0.5"/>
<path d="M69.623 183.351L62.1973 185.427L56.0557 183.009L63.4834 180.933L69.623 183.351Z" fill="url(#paint8_linear_215_12202)" style="mix-blend-mode:hard-light"/>
<path d="M69.623 183.351L62.1973 185.427L56.0557 183.009L63.4834 180.933L69.623 183.351Z" stroke="url(#paint9_linear_215_12202)" stroke-width="0.5"/>
<path d="M54.6318 187.966L48.4912 190.384L41.0645 188.308L47.1875 185.89L54.6318 187.966Z" fill="url(#paint10_linear_215_12202)" style="mix-blend-mode:hard-light"/>
<path d="M54.6318 187.966L48.4912 190.384L41.0645 188.308L47.1875 185.89L54.6318 187.966Z" stroke="url(#paint11_linear_215_12202)" stroke-width="0.5"/>
<path d="M42.3047 193.34L37.5928 196.038L29.0527 194.409L33.7646 191.711L42.3047 193.34Z" fill="url(#paint12_linear_215_12202)" style="mix-blend-mode:hard-light"/>
<path d="M42.3047 193.34L37.5928 196.038L29.0527 194.409L33.7646 191.711L42.3047 193.34Z" stroke="url(#paint13_linear_215_12202)" stroke-width="0.5"/>
<path d="M33.0176 199.352L29.8291 202.242L20.3945 201.117L23.584 198.208L33.0176 199.352Z" fill="url(#paint14_linear_215_12202)" style="mix-blend-mode:hard-light"/>
<path d="M33.0176 199.352L29.8291 202.242L20.3945 201.117L23.584 198.208L33.0176 199.352Z" stroke="url(#paint15_linear_215_12202)" stroke-width="0.5"/>
<path d="M27.0312 205.788L25.4238 208.805L15.4023 208.225L17.0088 205.209L27.0312 205.788Z" fill="url(#paint16_linear_215_12202)" style="mix-blend-mode:hard-light"/>
<path d="M27.0312 205.788L25.4238 208.805L15.4023 208.225L17.0088 205.209L27.0312 205.788Z" stroke="url(#paint17_linear_215_12202)" stroke-width="0.5"/>
<path d="M14.25 212.478H24.4883V215.522H14.25V212.478Z" fill="url(#paint18_linear_215_12202)" style="mix-blend-mode:hard-light"/>
<path d="M14.25 212.478H24.4883V215.522H14.25V212.478Z" stroke="url(#paint19_linear_215_12202)" stroke-width="0.5"/>
<path d="M27.0322 222.189L16.9922 222.77L15.3848 219.753L25.4258 219.174L27.0322 222.189Z" fill="url(#paint20_linear_215_12202)" style="mix-blend-mode:hard-light"/>
<path d="M27.0322 222.189L16.9922 222.77L15.3848 219.753L25.4258 219.174L27.0322 222.189Z" stroke="url(#paint21_linear_215_12202)" stroke-width="0.5"/>
<path d="M32.998 228.626L23.5645 229.77L20.374 226.86L29.8096 225.736L32.998 228.626Z" fill="url(#paint22_linear_215_12202)" style="mix-blend-mode:hard-light"/>
<path d="M32.998 228.626L23.5645 229.77L20.374 226.86L29.8096 225.736L32.998 228.626Z" stroke="url(#paint23_linear_215_12202)" stroke-width="0.5"/>
<path d="M42.2676 234.638L33.7275 236.267L29.0156 233.568L37.5557 231.939L42.2676 234.638Z" fill="url(#paint24_linear_215_12202)" style="mix-blend-mode:hard-light"/>
<path d="M42.2676 234.638L33.7275 236.267L29.0156 233.568L37.5557 231.939L42.2676 234.638Z" stroke="url(#paint25_linear_215_12202)" stroke-width="0.5"/>
<path d="M54.5752 240.032L47.1533 242.088L41.0137 239.672L48.4375 237.615L54.5752 240.032Z" fill="url(#paint26_linear_215_12202)" style="mix-blend-mode:hard-light"/>
<path d="M54.5752 240.032L47.1533 242.088L41.0137 239.672L48.4375 237.615L54.5752 240.032Z" stroke="url(#paint27_linear_215_12202)" stroke-width="0.5"/>
<path d="M69.5635 244.628L63.4238 247.044L56.002 244.989L62.1396 242.572L69.5635 244.628Z" fill="url(#paint28_linear_215_12202)" style="mix-blend-mode:hard-light"/>
<path d="M69.5635 244.628L63.4238 247.044L56.002 244.989L62.1396 242.572L69.5635 244.628Z" stroke="url(#paint29_linear_215_12202)" stroke-width="0.5"/>
<path d="M86.7734 248.292L82.0615 250.991L73.5215 249.362L78.2334 246.664L86.7734 248.292Z" fill="url(#paint30_linear_215_12202)" style="mix-blend-mode:hard-light"/>
<path d="M86.7734 248.292L82.0615 250.991L73.5215 249.362L78.2334 246.664L86.7734 248.292Z" stroke="url(#paint31_linear_215_12202)" stroke-width="0.5"/>
<path d="M105.671 250.909L102.481 253.818L93.0479 252.674L96.2363 249.785L105.671 250.909Z" fill="url(#paint32_linear_215_12202)" style="mix-blend-mode:hard-light"/>
<path d="M105.671 250.909L102.481 253.818L93.0479 252.674L96.2363 249.785L105.671 250.909Z" stroke="url(#paint33_linear_215_12202)" stroke-width="0.5"/>
<path d="M125.653 252.409L124.046 255.424L114.022 254.824L115.63 251.808L125.653 252.409Z" fill="url(#paint34_linear_215_12202)" style="mix-blend-mode:hard-light"/>
<path d="M125.653 252.409L124.046 255.424L114.022 254.824L115.63 251.808L125.653 252.409Z" stroke="url(#paint35_linear_215_12202)" stroke-width="0.5"/>
<path d="M135.826 255.75V252.706H146.064V255.75H135.826Z" fill="url(#paint36_linear_215_12202)" style="mix-blend-mode:hard-light"/>
<path d="M135.826 255.75V252.706H146.064V255.75H135.826Z" stroke="url(#paint37_linear_215_12202)" stroke-width="0.5"/>
<path d="M167.901 254.824L157.86 255.424L156.254 252.408L166.295 251.829L167.901 254.824Z" fill="url(#paint38_linear_215_12202)" style="mix-blend-mode:hard-light"/>
<path d="M167.901 254.824L157.86 255.424L156.254 252.408L166.295 251.829L167.901 254.824Z" stroke="url(#paint39_linear_215_12202)" stroke-width="0.5"/>
<path d="M188.877 252.694L179.425 253.819L176.252 250.929L185.688 249.786L188.877 252.694Z" fill="url(#paint40_linear_215_12202)" style="mix-blend-mode:hard-light"/>
<path d="M188.877 252.694L179.425 253.819L176.252 250.929L185.688 249.786L188.877 252.694Z" stroke="url(#paint41_linear_215_12202)" stroke-width="0.5"/>
<path d="M208.404 249.383L199.864 251.012L195.152 248.313L203.692 246.685L208.404 249.383Z" fill="url(#paint42_linear_215_12202)" style="mix-blend-mode:hard-light"/>
<path d="M208.404 249.383L199.864 251.012L195.152 248.313L203.692 246.685L208.404 249.383Z" stroke="url(#paint43_linear_215_12202)" stroke-width="0.5"/>
<path d="M225.924 245.01L218.501 247.065L212.362 244.649L219.804 242.593L225.924 245.01Z" fill="url(#paint44_linear_215_12202)" style="mix-blend-mode:hard-light"/>
<path d="M225.924 245.01L218.501 247.065L212.362 244.649L219.804 242.593L225.924 245.01Z" stroke="url(#paint45_linear_215_12202)" stroke-width="0.5"/>
<path d="M240.93 239.693L234.791 242.109L227.368 240.053L233.488 237.636L240.93 239.693Z" fill="url(#paint46_linear_215_12202)" style="mix-blend-mode:hard-light"/>
<path d="M240.93 239.693L234.791 242.109L227.368 240.053L233.488 237.636L240.93 239.693Z" stroke="url(#paint47_linear_215_12202)" stroke-width="0.5"/>
<path d="M252.93 233.589L248.234 236.288L239.676 234.659L244.388 231.96L252.93 233.589Z" fill="url(#paint48_linear_215_12202)" style="mix-blend-mode:hard-light"/>
<path d="M252.93 233.589L248.234 236.288L239.676 234.659L244.388 231.96L252.93 233.589Z" stroke="url(#paint49_linear_215_12202)" stroke-width="0.5"/>
<path d="M261.586 226.902L258.398 229.791L248.964 228.647L252.151 225.758L261.586 226.902Z" fill="url(#paint50_linear_215_12202)" style="mix-blend-mode:hard-light"/>
<path d="M261.586 226.902L258.398 229.791L248.964 228.647L252.151 225.758L261.586 226.902Z" stroke="url(#paint51_linear_215_12202)" stroke-width="0.5"/>
<path d="M266.578 219.774L264.971 222.791L254.949 222.211L256.556 219.195L266.578 219.774Z" fill="url(#paint52_linear_215_12202)" style="mix-blend-mode:hard-light"/>
<path d="M266.578 219.774L264.971 222.791L254.949 222.211L256.556 219.195L266.578 219.774Z" stroke="url(#paint53_linear_215_12202)" stroke-width="0.5"/>
<path d="M267.75 215.543H257.512V212.499H267.75V215.543Z" fill="url(#paint54_linear_215_12202)" style="mix-blend-mode:hard-light"/>
<path d="M267.75 215.543H257.512V212.499H267.75V215.543Z" stroke="url(#paint55_linear_215_12202)" stroke-width="0.5"/>
<path d="M266.596 208.246L256.574 208.826L254.967 205.81L264.989 205.23L266.596 208.246Z" fill="url(#paint56_linear_215_12202)" style="mix-blend-mode:hard-light"/>
<path d="M266.596 208.246L256.574 208.826L254.967 205.81L264.989 205.23L266.596 208.246Z" stroke="url(#paint57_linear_215_12202)" stroke-width="0.5"/>
<path d="M261.603 201.138L252.169 202.262L248.981 199.374L258.415 198.25L261.603 201.138Z" fill="url(#paint58_linear_215_12202)" style="mix-blend-mode:hard-light"/>
<path d="M261.603 201.138L252.169 202.262L248.981 199.374L258.415 198.25L261.603 201.138Z" stroke="url(#paint59_linear_215_12202)" stroke-width="0.5"/>
<path d="M252.966 194.431L244.425 196.06L239.713 193.361L248.271 191.732L252.966 194.431Z" fill="url(#paint60_linear_215_12202)" style="mix-blend-mode:hard-light"/>
<path d="M252.966 194.431L244.425 196.06L239.713 193.361L248.271 191.732L252.966 194.431Z" stroke="url(#paint61_linear_215_12202)" stroke-width="0.5"/>
<path d="M240.968 188.328L233.546 190.384L227.406 187.968L234.83 185.911L240.968 188.328Z" fill="url(#paint62_linear_215_12202)" style="mix-blend-mode:hard-light"/>
<path d="M240.968 188.328L233.546 190.384L227.406 187.968L234.83 185.911L240.968 188.328Z" stroke="url(#paint63_linear_215_12202)" stroke-width="0.5"/>
<path d="M225.979 183.01L219.856 185.426L212.417 183.371L218.554 180.954L225.979 183.01Z" fill="url(#paint64_linear_215_12202)" style="mix-blend-mode:hard-light"/>
<path d="M225.979 183.01L219.856 185.426L212.417 183.371L218.554 180.954L225.979 183.01Z" stroke="url(#paint65_linear_215_12202)" stroke-width="0.5"/>
<path d="M208.461 178.637L203.766 181.335L195.207 179.706L199.919 177.008L208.461 178.637Z" fill="url(#paint66_linear_215_12202)" style="mix-blend-mode:hard-light"/>
<path d="M208.461 178.637L203.766 181.335L195.207 179.706L199.919 177.008L208.461 178.637Z" stroke="url(#paint67_linear_215_12202)" stroke-width="0.5"/>
<path d="M188.932 175.325L185.743 178.214L176.309 177.089L179.498 174.181L188.932 175.325Z" fill="url(#paint68_linear_215_12202)" style="mix-blend-mode:hard-light"/>
<path d="M188.932 175.325L185.743 178.214L176.309 177.089L179.498 174.181L188.932 175.325Z" stroke="url(#paint69_linear_215_12202)" stroke-width="0.5"/>
<path d="M167.96 173.176L166.367 176.192L156.328 175.612L157.935 172.596L167.96 173.176Z" fill="url(#paint70_linear_215_12202)" style="mix-blend-mode:hard-light"/>
<path d="M167.96 173.176L166.367 176.192L156.328 175.612L157.935 172.596L167.96 173.176Z" stroke="url(#paint71_linear_215_12202)" stroke-width="0.5"/>
<path d="M141.83 186.013C162.652 186.013 183.45 188.65 199.292 193.909C207.214 196.539 213.117 199.565 217.029 202.766C220.944 205.968 222.812 209.299 222.812 212.55C222.811 215.801 220.944 219.13 217.029 222.333C213.117 225.534 207.215 228.56 199.292 231.19C183.45 236.45 162.652 239.087 141.83 239.087C121.008 239.087 100.209 236.45 84.3672 231.19C76.4446 228.56 70.542 225.534 66.6299 222.333C62.7157 219.13 60.8477 215.801 60.8477 212.55C60.8477 209.299 62.7156 205.968 66.6299 202.766C70.542 199.565 76.4448 196.539 84.3672 193.909C100.209 188.65 121.008 186.013 141.83 186.013ZM141.82 193.978C127.838 193.978 113.833 195.746 103.124 199.298C97.7714 201.073 93.7177 203.137 90.9922 205.367C88.2689 207.595 86.8175 210.037 86.8174 212.559C86.8174 215.08 88.2688 217.523 90.9922 219.751C93.7177 221.981 97.7715 224.045 103.124 225.82C113.833 229.372 127.838 231.141 141.82 231.141C155.803 231.141 169.809 229.373 180.518 225.82C185.87 224.045 189.924 221.981 192.649 219.751C195.373 217.523 196.823 215.08 196.823 212.559C196.823 210.037 195.372 207.595 192.649 205.367C189.924 203.137 185.87 201.073 180.518 199.298C169.809 195.746 155.803 193.978 141.82 193.978Z" fill="url(#paint72_linear_215_12202)" style="mix-blend-mode:hard-light"/>
<path d="M141.83 186.013C162.652 186.013 183.45 188.65 199.292 193.909C207.214 196.539 213.117 199.565 217.029 202.766C220.944 205.968 222.812 209.299 222.812 212.55C222.811 215.801 220.944 219.13 217.029 222.333C213.117 225.534 207.215 228.56 199.292 231.19C183.45 236.45 162.652 239.087 141.83 239.087C121.008 239.087 100.209 236.45 84.3672 231.19C76.4446 228.56 70.542 225.534 66.6299 222.333C62.7157 219.13 60.8477 215.801 60.8477 212.55C60.8477 209.299 62.7156 205.968 66.6299 202.766C70.542 199.565 76.4448 196.539 84.3672 193.909C100.209 188.65 121.008 186.013 141.83 186.013ZM141.82 193.978C127.838 193.978 113.833 195.746 103.124 199.298C97.7714 201.073 93.7177 203.137 90.9922 205.367C88.2689 207.595 86.8175 210.037 86.8174 212.559C86.8174 215.08 88.2688 217.523 90.9922 219.751C93.7177 221.981 97.7715 224.045 103.124 225.82C113.833 229.372 127.838 231.141 141.82 231.141C155.803 231.141 169.809 229.373 180.518 225.82C185.87 224.045 189.924 221.981 192.649 219.751C195.373 217.523 196.823 215.08 196.823 212.559C196.823 210.037 195.372 207.595 192.649 205.367C189.924 203.137 185.87 201.073 180.518 199.298C169.809 195.746 155.803 193.978 141.82 193.978Z" stroke="url(#paint73_linear_215_12202)"/>
<path d="M105.587 205.313C103.272 206.43 101.501 207.654 100.298 208.949C98.8947 210.46 98.2413 212.099 98.458 213.774C98.6729 215.435 99.7295 217.019 101.503 218.466C103.031 219.712 105.121 220.881 107.759 221.937L95.4658 226.021C90.4361 224.239 86.6421 222.232 84.0605 220.124C81.449 217.992 80.1229 215.797 79.9404 213.665C79.759 211.544 80.6988 209.357 82.9033 207.207C85.0853 205.079 88.473 203.026 93.0986 201.176L105.587 205.313Z" fill="url(#paint74_linear_215_12202)" style="mix-blend-mode:hard-light"/>
<path d="M105.587 205.313C103.272 206.43 101.501 207.654 100.298 208.949C98.8947 210.46 98.2413 212.099 98.458 213.774C98.6729 215.435 99.7295 217.019 101.503 218.466C103.031 219.712 105.121 220.881 107.759 221.937L95.4658 226.021C90.4361 224.239 86.6421 222.232 84.0605 220.124C81.449 217.992 80.1229 215.797 79.9404 213.665C79.759 211.544 80.6988 209.357 82.9033 207.207C85.0853 205.079 88.473 203.026 93.0986 201.176L105.587 205.313Z" stroke="url(#paint75_linear_215_12202)"/>
<path d="M79.709 186.577C118.054 176.639 173.066 177.168 209.606 188.172L187.545 195.486C163.49 188.193 127.56 187.681 101.831 193.923L79.709 186.577Z" fill="url(#paint76_linear_215_12202)" style="mix-blend-mode:hard-light"/>
<path d="M79.709 186.577C118.054 176.639 173.066 177.168 209.606 188.172L187.545 195.486C163.49 188.193 127.56 187.681 101.831 193.923L79.709 186.577Z" stroke="url(#paint77_linear_215_12202)"/>
<path d="M218.7 190.669C226.294 193.715 231.973 197.09 235.764 200.611C239.581 204.157 241.451 207.816 241.498 211.417C241.545 215.018 239.773 218.678 236.056 222.23C232.36 225.762 226.771 229.15 219.264 232.216L196.773 224.749C200.647 222.89 203.617 220.87 205.658 218.747C207.899 216.415 209.047 213.934 208.997 211.408C208.948 208.883 207.705 206.412 205.374 204.092C203.249 201.978 200.197 199.968 196.24 198.123L218.7 190.669Z" fill="url(#paint78_linear_215_12202)" style="mix-blend-mode:hard-light"/>
<path d="M218.7 190.669C226.294 193.715 231.973 197.09 235.764 200.611C239.581 204.157 241.451 207.816 241.498 211.417C241.545 215.018 239.773 218.678 236.056 222.23C232.36 225.762 226.771 229.15 219.264 232.216L196.773 224.749C200.647 222.89 203.617 220.87 205.658 218.747C207.899 216.415 209.047 213.934 208.997 211.408C208.948 208.883 207.705 206.412 205.374 204.092C203.249 201.978 200.197 199.968 196.24 198.123L218.7 190.669Z" stroke="url(#paint79_linear_215_12202)"/>
<path d="M86.2246 199.722C82.3515 201.58 79.3822 203.601 77.3408 205.725C75.0999 208.056 73.9535 210.536 74.0029 213.062C74.0523 215.587 75.2944 218.059 77.626 220.379C79.7508 222.493 82.8025 224.502 86.7588 226.348L64.2979 233.801C56.7051 230.755 51.0262 227.381 47.2354 223.86C43.4178 220.315 41.5483 216.655 41.501 213.054C41.4538 209.454 43.2266 205.792 46.9443 202.24C50.6402 198.709 56.2268 195.319 63.7334 192.253L86.2246 199.722Z" fill="url(#paint80_linear_215_12202)" style="mix-blend-mode:hard-light"/>
<path d="M86.2246 199.722C82.3515 201.58 79.3822 203.601 77.3408 205.725C75.0999 208.056 73.9535 210.536 74.0029 213.062C74.0523 215.587 75.2944 218.059 77.626 220.379C79.7508 222.493 82.8025 224.502 86.7588 226.348L64.2979 233.801C56.7051 230.755 51.0262 227.381 47.2354 223.86C43.4178 220.315 41.5483 216.655 41.501 213.054C41.4538 209.454 43.2266 205.792 46.9443 202.24C50.6402 198.709 56.2268 195.319 63.7334 192.253L86.2246 199.722Z" stroke="url(#paint81_linear_215_12202)"/>
<path d="M141.83 186.013C162.652 186.013 183.45 188.65 199.292 193.909C207.214 196.539 213.117 199.565 217.029 202.766C220.944 205.968 222.812 209.299 222.812 212.55C222.811 215.801 220.944 219.13 217.029 222.333C213.117 225.534 207.215 228.56 199.292 231.19C183.45 236.45 162.652 239.087 141.83 239.087C121.008 239.087 100.209 236.45 84.3672 231.19C76.4446 228.56 70.542 225.534 66.6299 222.333C62.7157 219.13 60.8477 215.801 60.8477 212.55C60.8477 209.299 62.7156 205.968 66.6299 202.766C70.542 199.565 76.4448 196.539 84.3672 193.909C100.209 188.65 121.008 186.013 141.83 186.013ZM141.82 193.978C127.838 193.978 113.833 195.746 103.124 199.298C97.7714 201.073 93.7177 203.137 90.9922 205.367C88.2689 207.595 86.8175 210.037 86.8174 212.559C86.8174 215.08 88.2688 217.523 90.9922 219.751C93.7177 221.981 97.7715 224.045 103.124 225.82C113.833 229.372 127.838 231.141 141.82 231.141C155.803 231.141 169.809 229.373 180.518 225.82C185.87 224.045 189.924 221.981 192.649 219.751C195.373 217.523 196.823 215.08 196.823 212.559C196.823 210.037 195.372 207.595 192.649 205.367C189.924 203.137 185.87 201.073 180.518 199.298C169.809 195.746 155.803 193.978 141.82 193.978Z" fill="url(#paint82_linear_215_12202)" style="mix-blend-mode:hard-light"/>
<path d="M141.83 186.013C162.652 186.013 183.45 188.65 199.292 193.909C207.214 196.539 213.117 199.565 217.029 202.766C220.944 205.968 222.812 209.299 222.812 212.55C222.811 215.801 220.944 219.13 217.029 222.333C213.117 225.534 207.215 228.56 199.292 231.19C183.45 236.45 162.652 239.087 141.83 239.087C121.008 239.087 100.209 236.45 84.3672 231.19C76.4446 228.56 70.542 225.534 66.6299 222.333C62.7157 219.13 60.8477 215.801 60.8477 212.55C60.8477 209.299 62.7156 205.968 66.6299 202.766C70.542 199.565 76.4448 196.539 84.3672 193.909C100.209 188.65 121.008 186.013 141.83 186.013ZM141.82 193.978C127.838 193.978 113.833 195.746 103.124 199.298C97.7714 201.073 93.7177 203.137 90.9922 205.367C88.2689 207.595 86.8175 210.037 86.8174 212.559C86.8174 215.08 88.2688 217.523 90.9922 219.751C93.7177 221.981 97.7715 224.045 103.124 225.82C113.833 229.372 127.838 231.141 141.82 231.141C155.803 231.141 169.809 229.373 180.518 225.82C185.87 224.045 189.924 221.981 192.649 219.751C195.373 217.523 196.823 215.08 196.823 212.559C196.823 210.037 195.372 207.595 192.649 205.367C189.924 203.137 185.87 201.073 180.518 199.298C169.809 195.746 155.803 193.978 141.82 193.978Z" stroke="url(#paint83_linear_215_12202)"/>
<path d="M105.587 205.313C103.272 206.43 101.501 207.654 100.298 208.949C98.8947 210.46 98.2413 212.099 98.458 213.774C98.6729 215.435 99.7295 217.019 101.503 218.466C103.031 219.712 105.121 220.881 107.759 221.937L95.4658 226.021C90.4361 224.239 86.6421 222.232 84.0605 220.124C81.449 217.992 80.1229 215.797 79.9404 213.665C79.759 211.544 80.6988 209.357 82.9033 207.207C85.0853 205.079 88.473 203.026 93.0986 201.176L105.587 205.313Z" fill="url(#paint84_linear_215_12202)" style="mix-blend-mode:hard-light"/>
<path d="M105.587 205.313C103.272 206.43 101.501 207.654 100.298 208.949C98.8947 210.46 98.2413 212.099 98.458 213.774C98.6729 215.435 99.7295 217.019 101.503 218.466C103.031 219.712 105.121 220.881 107.759 221.937L95.4658 226.021C90.4361 224.239 86.6421 222.232 84.0605 220.124C81.449 217.992 80.1229 215.797 79.9404 213.665C79.759 211.544 80.6988 209.357 82.9033 207.207C85.0853 205.079 88.473 203.026 93.0986 201.176L105.587 205.313Z" stroke="url(#paint85_linear_215_12202)"/>
<path d="M189.454 199.508C194.146 201.4 197.645 203.487 199.977 205.654C202.335 207.846 203.466 210.085 203.495 212.265C203.524 214.442 202.453 216.68 200.158 218.873C197.888 221.042 194.452 223.134 189.82 225.034L176.274 220.537C178.501 219.425 180.233 218.221 181.451 216.952C182.871 215.473 183.616 213.879 183.584 212.238C183.552 210.6 182.746 209.014 181.27 207.544C180.002 206.282 178.222 205.085 175.946 203.981L189.454 199.508Z" fill="url(#paint86_linear_215_12202)" style="mix-blend-mode:hard-light"/>
<path d="M189.454 199.508C194.146 201.4 197.645 203.487 199.977 205.654C202.335 207.846 203.466 210.085 203.495 212.265C203.524 214.442 202.453 216.68 200.158 218.873C197.888 221.042 194.452 223.134 189.82 225.034L176.274 220.537C178.501 219.425 180.233 218.221 181.451 216.952C182.871 215.473 183.616 213.879 183.584 212.238C183.552 210.6 182.746 209.014 181.27 207.544C180.002 206.282 178.222 205.085 175.946 203.981L189.454 199.508Z" stroke="url(#paint87_linear_215_12202)"/>
<path d="M201.83 238.936C167.187 248.154 117.652 248.173 82.9385 239.008L103.762 232.091C126.599 237.79 158.238 237.771 181.003 232.036L201.83 238.936Z" fill="url(#paint88_linear_215_12202)" style="mix-blend-mode:hard-light"/>
<path d="M201.83 238.936C167.187 248.154 117.652 248.173 82.9385 239.008L103.762 232.091C126.599 237.79 158.238 237.771 181.003 232.036L201.83 238.936Z" stroke="url(#paint89_linear_215_12202)"/>
</g>
<path d="M242 210C242 229.882 196.781 246 141 246C85.2192 246 40 229.882 40 210L0 0H282L242 210Z" fill="url(#paint90_radial_215_12202)" fill-opacity="0.4"/>
<mask id="mask1_215_12202" style="mask-type:alpha" maskUnits="userSpaceOnUse" x="63" y="20" width="156" height="180">
<path d="M140.25 21.0107C140.714 20.7428 141.286 20.7428 141.75 21.0107L217.692 64.8555C218.156 65.1233 218.442 65.6186 218.442 66.1543V153.846C218.442 154.381 218.156 154.877 217.692 155.145L141.75 198.989C141.286 199.257 140.714 199.257 140.25 198.989L64.3076 155.145C63.8436 154.877 63.5578 154.381 63.5576 153.846V66.1543C63.5578 65.6186 63.8436 65.1234 64.3076 64.8555L140.25 21.0107Z" fill="white" stroke="url(#paint91_linear_215_12202)" stroke-linejoin="round"/>
</mask>
<g mask="url(#mask1_215_12202)">
<path d="M140.25 21.0107C140.714 20.7428 141.286 20.7428 141.75 21.0107L217.692 64.8555C218.156 65.1233 218.442 65.6186 218.442 66.1543V153.846C218.442 154.381 218.156 154.877 217.692 155.145L141.75 198.989C141.286 199.257 140.714 199.257 140.25 198.989L64.3076 155.145C63.8436 154.877 63.5578 154.381 63.5576 153.846V66.1543C63.5578 65.6186 63.8436 65.1234 64.3076 64.8555L140.25 21.0107Z" fill="#F44949" stroke="url(#paint92_linear_215_12202)" stroke-linejoin="round"/>
<path d="M63 65L87 79V141L63 155V65Z" fill="url(#paint93_linear_215_12202)"/>
<path d="M219 65L195 79V141L219 155V65Z" fill="url(#paint94_linear_215_12202)"/>
<path d="M140.971 19.9502L140.846 47.7348L87.1528 78.7348L63.0284 64.9502L140.971 19.9502Z" fill="url(#paint95_linear_215_12202)"/>
<path d="M218.971 155.05L194.846 141.265L141.153 172.265L141.028 200.05L218.971 155.05Z" fill="url(#paint96_linear_215_12202)"/>
<path d="M218.971 64.9497L194.846 78.7343L141.153 47.7343L141.028 19.9497L218.971 64.9497Z" fill="url(#paint97_linear_215_12202)"/>
<path d="M140.971 200.049L140.846 172.265L87.1528 141.265L63.0284 155.049L140.971 200.049Z" fill="url(#paint98_linear_215_12202)"/>
<mask id="mask2_215_12202" style="mask-type:alpha" maskUnits="userSpaceOnUse" x="86" y="47" width="110" height="126">
<path d="M140.25 48.0107C140.656 47.7763 141.145 47.747 141.571 47.9229L141.75 48.0107L194.31 78.3555C194.774 78.6234 195.059 79.1186 195.06 79.6543V140.346C195.059 140.881 194.774 141.377 194.31 141.645L141.75 171.989C141.344 172.224 140.855 172.253 140.429 172.077L140.25 171.989L87.6904 141.645C87.2264 141.377 86.9406 140.881 86.9404 140.346V79.6543C86.9406 79.1186 87.2264 78.6234 87.6904 78.3555L140.25 48.0107Z" fill="url(#paint99_linear_215_12202)" stroke="url(#paint100_linear_215_12202)" stroke-linejoin="round"/>
</mask>
<g mask="url(#mask2_215_12202)">
<path d="M140.25 48.0107C140.656 47.7763 141.145 47.747 141.571 47.9229L141.75 48.0107L194.31 78.3555C194.774 78.6234 195.059 79.1186 195.06 79.6543V140.346C195.059 140.881 194.774 141.377 194.31 141.645L141.75 171.989C141.344 172.224 140.855 172.253 140.429 172.077L140.25 171.989L87.6904 141.645C87.2264 141.377 86.9406 140.881 86.9404 140.346V79.6543C86.9406 79.1186 87.2264 78.6234 87.6904 78.3555L140.25 48.0107Z" fill="url(#paint101_linear_215_12202)" stroke="url(#paint102_linear_215_12202)" stroke-linejoin="round"/>
<g opacity="0.08" filter="url(#filter0_f_215_12202)">
<rect x="106.035" y="201.736" width="198" height="8" transform="rotate(-60 106.035 201.736)" fill="white"/>
</g>
<g opacity="0.08" filter="url(#filter1_f_215_12202)">
<rect x="86.0352" y="201.736" width="198" height="4" transform="rotate(-60 86.0352 201.736)" fill="white"/>
</g>
</g>
<path d="M140.25 21.0107C140.714 20.7428 141.286 20.7428 141.75 21.0107L217.692 64.8555C218.156 65.1233 218.442 65.6186 218.442 66.1543V153.846C218.442 154.381 218.156 154.877 217.692 155.145L141.75 198.989C141.286 199.257 140.714 199.257 140.25 198.989L64.3076 155.145C63.8436 154.877 63.5578 154.381 63.5576 153.846V66.1543C63.5578 65.6186 63.8436 65.1234 64.3076 64.8555L140.25 21.0107Z" stroke="url(#paint103_linear_215_12202)" stroke-linejoin="round"/>
</g>
</g>
<defs>
<filter id="filter0_f_215_12202" x="102.035" y="26.2632" width="113.928" height="183.473" filterUnits="userSpaceOnUse" color-interpolation-filters="sRGB">
<feFlood flood-opacity="0" result="BackgroundImageFix"/>
<feBlend mode="normal" in="SourceGraphic" in2="BackgroundImageFix" result="shape"/>
<feGaussianBlur stdDeviation="2" result="effect1_foregroundBlur_215_12202"/>
</filter>
<filter id="filter1_f_215_12202" x="82.0352" y="26.2632" width="110.465" height="181.473" filterUnits="userSpaceOnUse" color-interpolation-filters="sRGB">
<feFlood flood-opacity="0" result="BackgroundImageFix"/>
<feBlend mode="normal" in="SourceGraphic" in2="BackgroundImageFix" result="shape"/>
<feGaussianBlur stdDeviation="2" result="effect1_foregroundBlur_215_12202"/>
</filter>
<linearGradient id="paint0_linear_215_12202" x1="122.25" y1="216.262" x2="164.858" y2="201.963" gradientUnits="userSpaceOnUse">
<stop stop-opacity="0"/>
<stop offset="1" stop-color="#F44949"/>
</linearGradient>
<linearGradient id="paint1_linear_215_12202" x1="141.019" y1="172" x2="141.019" y2="175.544" gradientUnits="userSpaceOnUse">
<stop stop-color="#FF9999"/>
<stop offset="1" stop-color="#FF9797" stop-opacity="0"/>
</linearGradient>
<linearGradient id="paint2_linear_215_12202" x1="98.1709" y1="223.713" x2="147.546" y2="207.177" gradientUnits="userSpaceOnUse">
<stop stop-opacity="0"/>
<stop offset="1" stop-color="#F44949"/>
</linearGradient>
<linearGradient id="paint3_linear_215_12202" x1="119.913" y1="172.337" x2="119.913" y2="176.451" gradientUnits="userSpaceOnUse">
<stop stop-color="#FF9999"/>
<stop offset="1" stop-color="#FF9797" stop-opacity="0"/>
</linearGradient>
<linearGradient id="paint4_linear_215_12202" x1="75.3657" y1="230.828" x2="130.03" y2="212.532" gradientUnits="userSpaceOnUse">
<stop stop-opacity="0"/>
<stop offset="1" stop-color="#F44949"/>
</linearGradient>
<linearGradient id="paint5_linear_215_12202" x1="99.4334" y1="173.919" x2="99.4334" y2="178.476" gradientUnits="userSpaceOnUse">
<stop stop-color="#FF9999"/>
<stop offset="1" stop-color="#FF9797" stop-opacity="0"/>
</linearGradient>
<linearGradient id="paint6_linear_215_12202" x1="54.552" y1="237.322" x2="112.801" y2="217.808" gradientUnits="userSpaceOnUse">
<stop stop-opacity="0"/>
<stop offset="1" stop-color="#F44949"/>
</linearGradient>
<linearGradient id="paint7_linear_215_12202" x1="80.2026" y1="176.725" x2="80.2026" y2="181.577" gradientUnits="userSpaceOnUse">
<stop stop-color="#FF9999"/>
<stop offset="1" stop-color="#FF9797" stop-opacity="0"/>
</linearGradient>
<linearGradient id="paint8_linear_215_12202" x1="36.3816" y1="243.375" x2="96.5035" y2="223.298" gradientUnits="userSpaceOnUse">
<stop stop-opacity="0"/>
<stop offset="1" stop-color="#F44949"/>
</linearGradient>
<linearGradient id="paint9_linear_215_12202" x1="62.8399" y1="180.67" x2="62.8399" y2="185.691" gradientUnits="userSpaceOnUse">
<stop stop-color="#FF9999"/>
<stop offset="1" stop-color="#FF9797" stop-opacity="0"/>
</linearGradient>
<linearGradient id="paint10_linear_215_12202" x1="21.3914" y1="248.332" x2="81.5132" y2="228.255" gradientUnits="userSpaceOnUse">
<stop stop-opacity="0"/>
<stop offset="1" stop-color="#F44949"/>
</linearGradient>
<linearGradient id="paint11_linear_215_12202" x1="47.8497" y1="185.627" x2="47.8497" y2="190.648" gradientUnits="userSpaceOnUse">
<stop stop-color="#FF9999"/>
<stop offset="1" stop-color="#FF9797" stop-opacity="0"/>
</linearGradient>
<linearGradient id="paint12_linear_215_12202" x1="10.0285" y1="252.047" x2="68.2778" y2="232.532" gradientUnits="userSpaceOnUse">
<stop stop-opacity="0"/>
<stop offset="1" stop-color="#F44949"/>
</linearGradient>
<linearGradient id="paint13_linear_215_12202" x1="35.6792" y1="191.449" x2="35.6792" y2="196.301" gradientUnits="userSpaceOnUse">
<stop stop-color="#FF9999"/>
<stop offset="1" stop-color="#FF9797" stop-opacity="0"/>
</linearGradient>
<linearGradient id="paint14_linear_215_12202" x1="2.63915" y1="254.856" x2="57.3036" y2="236.559" gradientUnits="userSpaceOnUse">
<stop stop-opacity="0"/>
<stop offset="1" stop-color="#F44949"/>
</linearGradient>
<linearGradient id="paint15_linear_215_12202" x1="26.7069" y1="197.947" x2="26.7069" y2="202.503" gradientUnits="userSpaceOnUse">
<stop stop-color="#FF9999"/>
<stop offset="1" stop-color="#FF9797" stop-opacity="0"/>
</linearGradient>
<linearGradient id="paint16_linear_215_12202" x1="-0.524415" y1="256.326" x2="48.8506" y2="239.789" gradientUnits="userSpaceOnUse">
<stop stop-opacity="0"/>
<stop offset="1" stop-color="#F44949"/>
</linearGradient>
<linearGradient id="paint17_linear_215_12202" x1="21.2173" y1="204.95" x2="21.2173" y2="209.064" gradientUnits="userSpaceOnUse">
<stop stop-color="#FF9999"/>
<stop offset="1" stop-color="#FF9797" stop-opacity="0"/>
</linearGradient>
<linearGradient id="paint18_linear_215_12202" x1="148.115" y1="220.195" x2="147.543" y2="204.57" gradientUnits="userSpaceOnUse">
<stop stop-opacity="0"/>
<stop offset="1" stop-color="#F44949"/>
</linearGradient>
<linearGradient id="paint19_linear_215_12202" x1="14" y1="214" x2="24.7381" y2="214" gradientUnits="userSpaceOnUse">
<stop stop-color="#FF9999"/>
<stop offset="1" stop-color="#FF9797" stop-opacity="0"/>
</linearGradient>
<linearGradient id="paint20_linear_215_12202" x1="-0.565059" y1="270.291" x2="48.8685" y2="253.71" gradientUnits="userSpaceOnUse">
<stop stop-opacity="0"/>
<stop offset="1" stop-color="#F44949"/>
</linearGradient>
<linearGradient id="paint21_linear_215_12202" x1="21.2089" y1="218.915" x2="21.2089" y2="223.029" gradientUnits="userSpaceOnUse">
<stop stop-color="#FF9999"/>
<stop offset="1" stop-color="#FF9797" stop-opacity="0"/>
</linearGradient>
<linearGradient id="paint22_linear_215_12202" x1="2.61962" y1="282.384" x2="57.284" y2="264.088" gradientUnits="userSpaceOnUse">
<stop stop-opacity="0"/>
<stop offset="1" stop-color="#F44949"/>
</linearGradient>
<linearGradient id="paint23_linear_215_12202" x1="26.6873" y1="225.476" x2="26.6873" y2="230.032" gradientUnits="userSpaceOnUse">
<stop stop-color="#FF9999"/>
<stop offset="1" stop-color="#FF9797" stop-opacity="0"/>
</linearGradient>
<linearGradient id="paint24_linear_215_12202" x1="9.99141" y1="292.275" x2="68.2406" y2="272.761" gradientUnits="userSpaceOnUse">
<stop stop-opacity="0"/>
<stop offset="1" stop-color="#F44949"/>
</linearGradient>
<linearGradient id="paint25_linear_215_12202" x1="35.6421" y1="231.678" x2="35.6421" y2="236.53" gradientUnits="userSpaceOnUse">
<stop stop-color="#FF9999"/>
<stop offset="1" stop-color="#FF9797" stop-opacity="0"/>
</linearGradient>
<linearGradient id="paint26_linear_215_12202" x1="21.3367" y1="299.794" x2="81.4076" y2="279.649" gradientUnits="userSpaceOnUse">
<stop stop-opacity="0"/>
<stop offset="1" stop-color="#F44949"/>
</linearGradient>
<linearGradient id="paint27_linear_215_12202" x1="47.795" y1="237.353" x2="47.795" y2="242.352" gradientUnits="userSpaceOnUse">
<stop stop-color="#FF9999"/>
<stop offset="1" stop-color="#FF9797" stop-opacity="0"/>
</linearGradient>
<linearGradient id="paint28_linear_215_12202" x1="36.3249" y1="304.751" x2="96.3959" y2="284.606" gradientUnits="userSpaceOnUse">
<stop stop-opacity="0"/>
<stop offset="1" stop-color="#F44949"/>
</linearGradient>
<linearGradient id="paint29_linear_215_12202" x1="62.7833" y1="242.309" x2="62.7833" y2="247.309" gradientUnits="userSpaceOnUse">
<stop stop-color="#FF9999"/>
<stop offset="1" stop-color="#FF9797" stop-opacity="0"/>
</linearGradient>
<linearGradient id="paint30_linear_215_12202" x1="54.4973" y1="306.999" x2="112.747" y2="287.485" gradientUnits="userSpaceOnUse">
<stop stop-opacity="0"/>
<stop offset="1" stop-color="#F44949"/>
</linearGradient>
<linearGradient id="paint31_linear_215_12202" x1="80.148" y1="246.402" x2="80.148" y2="251.254" gradientUnits="userSpaceOnUse">
<stop stop-color="#FF9999"/>
<stop offset="1" stop-color="#FF9797" stop-opacity="0"/>
</linearGradient>
<linearGradient id="paint32_linear_215_12202" x1="75.2915" y1="306.433" x2="129.956" y2="288.136" gradientUnits="userSpaceOnUse">
<stop stop-opacity="0"/>
<stop offset="1" stop-color="#F44949"/>
</linearGradient>
<linearGradient id="paint33_linear_215_12202" x1="99.3592" y1="249.524" x2="99.3592" y2="254.08" gradientUnits="userSpaceOnUse">
<stop stop-color="#FF9999"/>
<stop offset="1" stop-color="#FF9797" stop-opacity="0"/>
</linearGradient>
<linearGradient id="paint34_linear_215_12202" x1="98.0967" y1="303.189" x2="147.522" y2="286.719" gradientUnits="userSpaceOnUse">
<stop stop-opacity="0"/>
<stop offset="1" stop-color="#F44949"/>
</linearGradient>
<linearGradient id="paint35_linear_215_12202" x1="119.838" y1="251.549" x2="119.838" y2="255.684" gradientUnits="userSpaceOnUse">
<stop stop-color="#FF9999"/>
<stop offset="1" stop-color="#FF9797" stop-opacity="0"/>
</linearGradient>
<linearGradient id="paint36_linear_215_12202" x1="159.715" y1="211.738" x2="117.107" y2="226.037" gradientUnits="userSpaceOnUse">
<stop stop-opacity="0"/>
<stop offset="1" stop-color="#F44949"/>
</linearGradient>
<linearGradient id="paint37_linear_215_12202" x1="140.945" y1="256" x2="140.945" y2="252.456" gradientUnits="userSpaceOnUse">
<stop stop-color="#FF9999"/>
<stop offset="1" stop-color="#FF9797" stop-opacity="0"/>
</linearGradient>
<linearGradient id="paint38_linear_215_12202" x1="140.304" y1="302.946" x2="189.738" y2="286.365" gradientUnits="userSpaceOnUse">
<stop stop-opacity="0"/>
<stop offset="1" stop-color="#F44949"/>
</linearGradient>
<linearGradient id="paint39_linear_215_12202" x1="162.078" y1="251.57" x2="162.078" y2="255.683" gradientUnits="userSpaceOnUse">
<stop stop-color="#FF9999"/>
<stop offset="1" stop-color="#FF9797" stop-opacity="0"/>
</linearGradient>
<linearGradient id="paint40_linear_215_12202" x1="158.499" y1="306.433" x2="213.163" y2="288.136" gradientUnits="userSpaceOnUse">
<stop stop-opacity="0"/>
<stop offset="1" stop-color="#F44949"/>
</linearGradient>
<linearGradient id="paint41_linear_215_12202" x1="182.566" y1="249.524" x2="182.566" y2="254.08" gradientUnits="userSpaceOnUse">
<stop stop-color="#FF9999"/>
<stop offset="1" stop-color="#FF9797" stop-opacity="0"/>
</linearGradient>
<linearGradient id="paint42_linear_215_12202" x1="176.128" y1="307.02" x2="234.377" y2="287.506" gradientUnits="userSpaceOnUse">
<stop stop-opacity="0"/>
<stop offset="1" stop-color="#F44949"/>
</linearGradient>
<linearGradient id="paint43_linear_215_12202" x1="201.779" y1="246.423" x2="201.779" y2="251.275" gradientUnits="userSpaceOnUse">
<stop stop-color="#FF9999"/>
<stop offset="1" stop-color="#FF9797" stop-opacity="0"/>
</linearGradient>
<linearGradient id="paint44_linear_215_12202" x1="192.684" y1="304.772" x2="252.755" y2="284.627" gradientUnits="userSpaceOnUse">
<stop stop-opacity="0"/>
<stop offset="1" stop-color="#F44949"/>
</linearGradient>
<linearGradient id="paint45_linear_215_12202" x1="219.143" y1="242.33" x2="219.143" y2="247.33" gradientUnits="userSpaceOnUse">
<stop stop-color="#FF9999"/>
<stop offset="1" stop-color="#FF9797" stop-opacity="0"/>
</linearGradient>
<linearGradient id="paint46_linear_215_12202" x1="207.692" y1="299.815" x2="267.763" y2="279.67" gradientUnits="userSpaceOnUse">
<stop stop-opacity="0"/>
<stop offset="1" stop-color="#F44949"/>
</linearGradient>
<linearGradient id="paint47_linear_215_12202" x1="234.15" y1="237.374" x2="234.15" y2="242.373" gradientUnits="userSpaceOnUse">
<stop stop-color="#FF9999"/>
<stop offset="1" stop-color="#FF9797" stop-opacity="0"/>
</linearGradient>
<linearGradient id="paint48_linear_215_12202" x1="220.652" y1="292.296" x2="278.901" y2="272.782" gradientUnits="userSpaceOnUse">
<stop stop-opacity="0"/>
<stop offset="1" stop-color="#F44949"/>
</linearGradient>
<linearGradient id="paint49_linear_215_12202" x1="246.302" y1="231.699" x2="246.302" y2="236.551" gradientUnits="userSpaceOnUse">
<stop stop-color="#FF9999"/>
<stop offset="1" stop-color="#FF9797" stop-opacity="0"/>
</linearGradient>
<linearGradient id="paint50_linear_215_12202" x1="231.208" y1="282.405" x2="285.872" y2="264.109" gradientUnits="userSpaceOnUse">
<stop stop-opacity="0"/>
<stop offset="1" stop-color="#F44949"/>
</linearGradient>
<linearGradient id="paint51_linear_215_12202" x1="255.275" y1="225.497" x2="255.275" y2="230.053" gradientUnits="userSpaceOnUse">
<stop stop-color="#FF9999"/>
<stop offset="1" stop-color="#FF9797" stop-opacity="0"/>
</linearGradient>
<linearGradient id="paint52_linear_215_12202" x1="239.022" y1="270.313" x2="288.397" y2="253.776" gradientUnits="userSpaceOnUse">
<stop stop-opacity="0"/>
<stop offset="1" stop-color="#F44949"/>
</linearGradient>
<linearGradient id="paint53_linear_215_12202" x1="260.764" y1="218.937" x2="260.764" y2="223.05" gradientUnits="userSpaceOnUse">
<stop stop-color="#FF9999"/>
<stop offset="1" stop-color="#FF9797" stop-opacity="0"/>
</linearGradient>
<linearGradient id="paint54_linear_215_12202" x1="133.885" y1="207.826" x2="134.457" y2="223.451" gradientUnits="userSpaceOnUse">
<stop stop-opacity="0"/>
<stop offset="1" stop-color="#F44949"/>
</linearGradient>
<linearGradient id="paint55_linear_215_12202" x1="268" y1="214.021" x2="257.262" y2="214.021" gradientUnits="userSpaceOnUse">
<stop stop-color="#FF9999"/>
<stop offset="1" stop-color="#FF9797" stop-opacity="0"/>
</linearGradient>
<linearGradient id="paint56_linear_215_12202" x1="239.04" y1="256.348" x2="288.415" y2="239.811" gradientUnits="userSpaceOnUse">
<stop stop-opacity="0"/>
<stop offset="1" stop-color="#F44949"/>
</linearGradient>
<linearGradient id="paint57_linear_215_12202" x1="260.782" y1="204.972" x2="260.782" y2="209.085" gradientUnits="userSpaceOnUse">
<stop stop-color="#FF9999"/>
<stop offset="1" stop-color="#FF9797" stop-opacity="0"/>
</linearGradient>
<linearGradient id="paint58_linear_215_12202" x1="231.225" y1="254.634" x2="285.838" y2="236.27" gradientUnits="userSpaceOnUse">
<stop stop-opacity="0"/>
<stop offset="1" stop-color="#F44949"/>
</linearGradient>
<linearGradient id="paint59_linear_215_12202" x1="255.293" y1="197.989" x2="255.293" y2="202.524" gradientUnits="userSpaceOnUse">
<stop stop-color="#FF9999"/>
<stop offset="1" stop-color="#FF9797" stop-opacity="0"/>
</linearGradient>
<linearGradient id="paint60_linear_215_12202" x1="220.689" y1="252.068" x2="278.938" y2="232.554" gradientUnits="userSpaceOnUse">
<stop stop-opacity="0"/>
<stop offset="1" stop-color="#F44949"/>
</linearGradient>
<linearGradient id="paint61_linear_215_12202" x1="246.339" y1="191.471" x2="246.339" y2="196.323" gradientUnits="userSpaceOnUse">
<stop stop-color="#FF9999"/>
<stop offset="1" stop-color="#FF9797" stop-opacity="0"/>
</linearGradient>
<linearGradient id="paint62_linear_215_12202" x1="207.729" y1="248.09" x2="267.8" y2="227.945" gradientUnits="userSpaceOnUse">
<stop stop-opacity="0"/>
<stop offset="1" stop-color="#F44949"/>
</linearGradient>
<linearGradient id="paint63_linear_215_12202" x1="234.188" y1="185.648" x2="234.188" y2="190.648" gradientUnits="userSpaceOnUse">
<stop stop-color="#FF9999"/>
<stop offset="1" stop-color="#FF9797" stop-opacity="0"/>
</linearGradient>
<linearGradient id="paint64_linear_215_12202" x1="192.739" y1="243.133" x2="252.81" y2="222.988" gradientUnits="userSpaceOnUse">
<stop stop-opacity="0"/>
<stop offset="1" stop-color="#F44949"/>
</linearGradient>
<linearGradient id="paint65_linear_215_12202" x1="219.197" y1="180.691" x2="219.197" y2="185.69" gradientUnits="userSpaceOnUse">
<stop stop-color="#FF9999"/>
<stop offset="1" stop-color="#FF9797" stop-opacity="0"/>
</linearGradient>
<linearGradient id="paint66_linear_215_12202" x1="176.183" y1="237.343" x2="234.432" y2="217.829" gradientUnits="userSpaceOnUse">
<stop stop-opacity="0"/>
<stop offset="1" stop-color="#F44949"/>
</linearGradient>
<linearGradient id="paint67_linear_215_12202" x1="201.833" y1="176.746" x2="201.833" y2="181.598" gradientUnits="userSpaceOnUse">
<stop stop-color="#FF9999"/>
<stop offset="1" stop-color="#FF9797" stop-opacity="0"/>
</linearGradient>
<linearGradient id="paint68_linear_215_12202" x1="158.553" y1="230.828" x2="213.218" y2="212.532" gradientUnits="userSpaceOnUse">
<stop stop-opacity="0"/>
<stop offset="1" stop-color="#F44949"/>
</linearGradient>
<linearGradient id="paint69_linear_215_12202" x1="182.621" y1="173.919" x2="182.621" y2="178.476" gradientUnits="userSpaceOnUse">
<stop stop-color="#FF9999"/>
<stop offset="1" stop-color="#FF9797" stop-opacity="0"/>
</linearGradient>
<linearGradient id="paint70_linear_215_12202" x1="140.401" y1="223.713" x2="189.776" y2="207.177" gradientUnits="userSpaceOnUse">
<stop stop-opacity="0"/>
<stop offset="1" stop-color="#F44949"/>
</linearGradient>
<linearGradient id="paint71_linear_215_12202" x1="162.143" y1="172.337" x2="162.143" y2="176.451" gradientUnits="userSpaceOnUse">
<stop stop-color="#FF9999"/>
<stop offset="1" stop-color="#FF9797" stop-opacity="0"/>
</linearGradient>
<linearGradient id="paint72_linear_215_12202" x1="-307.848" y1="352.645" x2="-143.734" y2="-35.4238" gradientUnits="userSpaceOnUse">
<stop stop-opacity="0"/>
<stop offset="1" stop-color="#F44949"/>
</linearGradient>
<linearGradient id="paint73_linear_215_12202" x1="141.83" y1="185.513" x2="141.83" y2="239.587" gradientUnits="userSpaceOnUse">
<stop stop-color="#FF9999"/>
<stop offset="1" stop-color="#FF9797" stop-opacity="0"/>
</linearGradient>
<linearGradient id="paint74_linear_215_12202" x1="12.0008" y1="280.716" x2="121.028" y2="182.186" gradientUnits="userSpaceOnUse">
<stop stop-opacity="0"/>
<stop offset="1" stop-color="#F44949"/>
</linearGradient>
<linearGradient id="paint75_linear_215_12202" x1="94.3375" y1="200.644" x2="94.3375" y2="226.55" gradientUnits="userSpaceOnUse">
<stop stop-color="#FF9999"/>
<stop offset="1" stop-color="#FF9797" stop-opacity="0"/>
</linearGradient>
<linearGradient id="paint76_linear_215_12202" x1="-223.208" y1="231.577" x2="-200.405" y2="91.3735" gradientUnits="userSpaceOnUse">
<stop stop-opacity="0"/>
<stop offset="1" stop-color="#F44949"/>
</linearGradient>
<linearGradient id="paint77_linear_215_12202" x1="144.605" y1="179" x2="144.605" y2="196.011" gradientUnits="userSpaceOnUse">
<stop stop-color="#FF9999"/>
<stop offset="1" stop-color="#FF9797" stop-opacity="0"/>
</linearGradient>
<linearGradient id="paint78_linear_215_12202" x1="88.3911" y1="321.873" x2="266.88" y2="167.019" gradientUnits="userSpaceOnUse">
<stop stop-opacity="0"/>
<stop offset="1" stop-color="#F44949"/>
</linearGradient>
<linearGradient id="paint79_linear_215_12202" x1="218.435" y1="190.137" x2="218.435" y2="232.759" gradientUnits="userSpaceOnUse">
<stop stop-color="#FF9999"/>
<stop offset="1" stop-color="#FF9797" stop-opacity="0"/>
</linearGradient>
<linearGradient id="paint80_linear_215_12202" x1="-65.48" y1="323.447" x2="113.009" y2="168.593" gradientUnits="userSpaceOnUse">
<stop stop-opacity="0"/>
<stop offset="1" stop-color="#F44949"/>
</linearGradient>
<linearGradient id="paint81_linear_215_12202" x1="64.5642" y1="191.712" x2="64.5642" y2="234.334" gradientUnits="userSpaceOnUse">
<stop stop-color="#FF9999"/>
<stop offset="1" stop-color="#FF9797" stop-opacity="0"/>
</linearGradient>
<linearGradient id="paint82_linear_215_12202" x1="-307.848" y1="352.645" x2="-143.734" y2="-35.4238" gradientUnits="userSpaceOnUse">
<stop stop-opacity="0"/>
<stop offset="1" stop-color="#F44949"/>
</linearGradient>
<linearGradient id="paint83_linear_215_12202" x1="141.83" y1="185.513" x2="141.83" y2="239.587" gradientUnits="userSpaceOnUse">
<stop stop-color="#FF9999"/>
<stop offset="1" stop-color="#FF9797" stop-opacity="0"/>
</linearGradient>
<linearGradient id="paint84_linear_215_12202" x1="12.0008" y1="280.716" x2="121.028" y2="182.186" gradientUnits="userSpaceOnUse">
<stop stop-opacity="0"/>
<stop offset="1" stop-color="#F44949"/>
</linearGradient>
<linearGradient id="paint85_linear_215_12202" x1="94.3375" y1="200.644" x2="94.3375" y2="226.55" gradientUnits="userSpaceOnUse">
<stop stop-color="#FF9999"/>
<stop offset="1" stop-color="#FF9797" stop-opacity="0"/>
</linearGradient>
<linearGradient id="paint86_linear_215_12202" x1="108.145" y1="281.167" x2="219.509" y2="184.538" gradientUnits="userSpaceOnUse">
<stop stop-opacity="0"/>
<stop offset="1" stop-color="#F44949"/>
</linearGradient>
<linearGradient id="paint87_linear_215_12202" x1="189.292" y1="198.976" x2="189.292" y2="225.568" gradientUnits="userSpaceOnUse">
<stop stop-color="#FF9999"/>
<stop offset="1" stop-color="#FF9797" stop-opacity="0"/>
</linearGradient>
<linearGradient id="paint88_linear_215_12202" x1="-195.251" y1="277.416" x2="-176.271" y2="154.715" gradientUnits="userSpaceOnUse">
<stop stop-opacity="0"/>
<stop offset="1" stop-color="#F44949"/>
</linearGradient>
<linearGradient id="paint89_linear_215_12202" x1="142.383" y1="231.516" x2="142.383" y2="246.367" gradientUnits="userSpaceOnUse">
<stop stop-color="#FF9999"/>
<stop offset="1" stop-color="#FF9797" stop-opacity="0"/>
</linearGradient>
<radialGradient id="paint90_radial_215_12202" cx="0" cy="0" r="1" gradientUnits="userSpaceOnUse" gradientTransform="translate(141) rotate(90) scale(241.5 1453.72)">
<stop stop-color="#FF8787" stop-opacity="0"/>
<stop offset="1" stop-color="#FF8787"/>
</radialGradient>
<linearGradient id="paint91_linear_215_12202" x1="141" y1="20" x2="141" y2="200" gradientUnits="userSpaceOnUse">
<stop stop-color="#99F3FF"/>
<stop offset="1" stop-color="#97F2FF" stop-opacity="0"/>
</linearGradient>
<linearGradient id="paint92_linear_215_12202" x1="141" y1="20" x2="141" y2="200" gradientUnits="userSpaceOnUse">
<stop stop-color="#FF9999"/>
<stop offset="1" stop-color="#FF9797" stop-opacity="0"/>
</linearGradient>
<linearGradient id="paint93_linear_215_12202" x1="69.9862" y1="68.9997" x2="82.3724" y2="142.546" gradientUnits="userSpaceOnUse">
<stop stop-color="#FFC6A3"/>
<stop offset="1" stop-color="#FB5858" stop-opacity="0"/>
</linearGradient>
<linearGradient id="paint94_linear_215_12202" x1="207" y1="74" x2="207" y2="155" gradientUnits="userSpaceOnUse">
<stop stop-color="#D80303"/>
<stop offset="1" stop-color="#CB0000" stop-opacity="0"/>
</linearGradient>
<linearGradient id="paint95_linear_215_12202" x1="141" y1="28.0002" x2="83.5" y2="75.5002" gradientUnits="userSpaceOnUse">
<stop stop-color="#FFC6A3"/>
<stop offset="1" stop-color="#FB5858"/>
</linearGradient>
<linearGradient id="paint96_linear_215_12202" x1="180" y1="177.55" x2="171.5" y2="165" gradientUnits="userSpaceOnUse">
<stop stop-color="#D31515" stop-opacity="0"/>
<stop offset="1" stop-color="#C60606"/>
</linearGradient>
<linearGradient id="paint97_linear_215_12202" x1="143" y1="32.5002" x2="194.5" y2="75.0002" gradientUnits="userSpaceOnUse">
<stop stop-color="#FF3434"/>
<stop offset="1" stop-color="#FF3434" stop-opacity="0"/>
</linearGradient>
<linearGradient id="paint98_linear_215_12202" x1="144" y1="192.5" x2="82.5002" y2="146.5" gradientUnits="userSpaceOnUse">
<stop stop-color="#D31515" stop-opacity="0"/>
<stop offset="1" stop-color="#C60606"/>
</linearGradient>
<linearGradient id="paint99_linear_215_12202" x1="113.5" y1="66.5" x2="141" y2="110" gradientUnits="userSpaceOnUse">
<stop stop-color="#1C5DFF"/>
<stop offset="1" stop-color="#1C77FF"/>
</linearGradient>
<linearGradient id="paint100_linear_215_12202" x1="141" y1="47" x2="141" y2="173" gradientUnits="userSpaceOnUse">
<stop stop-color="#99F3FF"/>
<stop offset="1" stop-color="#97F2FF" stop-opacity="0"/>
</linearGradient>
<linearGradient id="paint101_linear_215_12202" x1="113.5" y1="66.5" x2="141" y2="110" gradientUnits="userSpaceOnUse">
<stop stop-color="#E71414"/>
<stop offset="1" stop-color="#F44949"/>
</linearGradient>
<linearGradient id="paint102_linear_215_12202" x1="141" y1="47" x2="141" y2="173" gradientUnits="userSpaceOnUse">
<stop stop-color="#FFC0C0"/>
<stop offset="1" stop-color="#FFC0C0" stop-opacity="0"/>
</linearGradient>
<linearGradient id="paint103_linear_215_12202" x1="141" y1="20" x2="141" y2="200" gradientUnits="userSpaceOnUse">
<stop stop-color="#FFC0C0"/>
<stop offset="1" stop-color="#FFC0C0" stop-opacity="0"/>
</linearGradient>
</defs>
</svg>
