<svg width="856" height="56" viewBox="0 0 856 56" fill="none" xmlns="http://www.w3.org/2000/svg">
<rect width="167" height="20" rx="10" fill="#1C5DFF"/>
<rect width="167" height="20" rx="10" fill="white" fill-opacity="0.9"/>
<path d="M8.876 5.432H9.608V10.688C9.608 11.616 9.808 12.308 10.208 12.764C10.64 13.26 11.308 13.508 12.212 13.508C13.116 13.508 13.784 13.26 14.216 12.764C14.616 12.292 14.816 11.6 14.816 10.688V5.432H15.548V10.688C15.548 11.792 15.28 12.644 14.744 13.244C14.176 13.86 13.332 14.168 12.212 14.168C11.092 14.168 10.252 13.864 9.692 13.256C9.148 12.664 8.876 11.808 8.876 10.688V5.432ZM19.9178 7.628C21.4538 7.628 22.2218 8.48 22.2218 10.184V14H21.5018V10.232C21.5018 8.912 20.9138 8.252 19.7378 8.252C19.2418 8.252 18.8258 8.432 18.4898 8.792C18.1378 9.144 17.9418 9.632 17.9018 10.256V14H17.1818V7.796H17.9018V8.816C18.1178 8.448 18.3978 8.156 18.7418 7.94C19.0778 7.732 19.4698 7.628 19.9178 7.628ZM24.4526 5.564C24.6206 5.564 24.7646 5.624 24.8846 5.744C25.0046 5.84 25.0646 5.98 25.0646 6.164C25.0646 6.324 25.0006 6.468 24.8726 6.596C24.7446 6.708 24.6046 6.764 24.4526 6.764C24.2766 6.764 24.1326 6.708 24.0206 6.596C23.9006 6.476 23.8406 6.332 23.8406 6.164C23.8406 5.98 23.9006 5.84 24.0206 5.744C24.1326 5.624 24.2766 5.564 24.4526 5.564ZM24.0926 7.796H24.8126V14H24.0926V7.796ZM29.2297 7.628C30.2217 7.628 30.9457 8.092 31.4017 9.02V7.796H32.0857V16.376H31.3657V12.704C30.9097 13.68 30.1857 14.168 29.1937 14.168C28.3057 14.168 27.6177 13.84 27.1297 13.184C26.6737 12.584 26.4457 11.828 26.4457 10.916C26.4457 9.98 26.6777 9.216 27.1417 8.624C27.6377 7.96 28.3337 7.628 29.2297 7.628ZM29.3017 8.24C28.5897 8.24 28.0497 8.508 27.6817 9.044C27.3537 9.5 27.1897 10.124 27.1897 10.916C27.1897 11.7 27.3617 12.324 27.7057 12.788C28.0737 13.3 28.6137 13.556 29.3257 13.556C29.9657 13.556 30.4697 13.316 30.8377 12.836C31.2057 12.348 31.3897 11.736 31.3897 11V10.868C31.3897 10.124 31.2177 9.512 30.8737 9.032C30.4897 8.504 29.9657 8.24 29.3017 8.24ZM33.5998 7.796H34.3198V11.588C34.3198 12.236 34.4558 12.72 34.7278 13.04C35.0158 13.376 35.4598 13.544 36.0598 13.544C36.5318 13.544 36.9518 13.36 37.3198 12.992C37.6798 12.632 37.8838 12.156 37.9318 11.564V7.796H38.6518V14H37.9318V12.956C37.4518 13.764 36.7638 14.168 35.8678 14.168C34.3558 14.168 33.5998 13.32 33.5998 11.624V7.796ZM42.6703 7.628C43.6543 7.628 44.3903 7.96 44.8783 8.624C45.3183 9.216 45.5543 10.044 45.5863 11.108H40.5463C40.5863 11.868 40.7903 12.464 41.1583 12.896C41.5423 13.328 42.0543 13.544 42.6943 13.544C43.2463 13.544 43.7023 13.396 44.0623 13.1C44.3503 12.852 44.5703 12.488 44.7223 12.008H45.4543C45.3103 12.608 45.0343 13.1 44.6263 13.484C44.1223 13.94 43.4783 14.168 42.6943 14.168C41.8223 14.168 41.1263 13.872 40.6063 13.28C40.0703 12.688 39.8022 11.892 39.8022 10.892C39.8022 9.98 40.0583 9.216 40.5703 8.6C41.0983 7.952 41.7983 7.628 42.6703 7.628ZM42.6823 8.252C42.0663 8.252 41.5743 8.464 41.2063 8.888C40.8303 9.312 40.6143 9.856 40.5583 10.52H44.8303C44.7103 9.008 43.9943 8.252 42.6823 8.252ZM50.8526 5.432H54.3326C56.2366 5.432 57.1886 6.252 57.1886 7.892C57.1886 9.54 56.2326 10.364 54.3206 10.364H51.5846V14H50.8526V5.432ZM51.5846 6.08V9.716H54.2846C55.0126 9.716 55.5606 9.564 55.9286 9.26C56.2726 8.956 56.4446 8.5 56.4446 7.892C56.4446 7.292 56.2726 6.844 55.9286 6.548C55.5686 6.236 55.0206 6.08 54.2846 6.08H51.5846ZM60.846 7.628C61.83 7.628 62.566 7.96 63.054 8.624C63.494 9.216 63.73 10.044 63.762 11.108H58.722C58.762 11.868 58.966 12.464 59.334 12.896C59.718 13.328 60.23 13.544 60.87 13.544C61.422 13.544 61.878 13.396 62.238 13.1C62.526 12.852 62.746 12.488 62.898 12.008H63.63C63.486 12.608 63.21 13.1 62.802 13.484C62.298 13.94 61.654 14.168 60.87 14.168C59.998 14.168 59.302 13.872 58.782 13.28C58.246 12.688 57.978 11.892 57.978 10.892C57.978 9.98 58.234 9.216 58.746 8.6C59.274 7.952 59.974 7.628 60.846 7.628ZM60.858 8.252C60.242 8.252 59.75 8.464 59.382 8.888C59.006 9.312 58.79 9.856 58.734 10.52H63.006C62.886 9.008 62.17 8.252 60.858 8.252ZM67.5163 7.628C67.9003 7.628 68.2003 7.672 68.4163 7.76V8.492C68.1203 8.404 67.8043 8.36 67.4683 8.36C66.9003 8.36 66.4523 8.608 66.1243 9.104C65.7963 9.552 65.6323 10.092 65.6323 10.724V14H64.9123V7.796H65.6323V8.984C65.8003 8.592 66.0283 8.284 66.3163 8.06C66.6523 7.772 67.0523 7.628 67.5163 7.628ZM71.3485 7.628C72.8205 7.628 73.6445 8.264 73.8205 9.536H73.1125C73.0325 9.104 72.8605 8.788 72.5965 8.588C72.3165 8.364 71.8965 8.252 71.3365 8.252C70.8725 8.252 70.5005 8.344 70.2205 8.528C69.9325 8.72 69.7885 8.968 69.7885 9.272C69.7885 9.584 69.9725 9.836 70.3405 10.028C70.5885 10.148 71.0245 10.292 71.6485 10.46C72.4085 10.652 72.9445 10.844 73.2565 11.036C73.7525 11.34 74.0005 11.756 74.0005 12.284C74.0005 13.54 73.1605 14.168 71.4805 14.168C69.8885 14.168 69.0205 13.46 68.8765 12.044H69.5845C69.6565 12.588 69.8485 12.98 70.1605 13.22C70.4485 13.436 70.8805 13.544 71.4565 13.544C72.6565 13.544 73.2565 13.136 73.2565 12.32C73.2565 11.944 73.0525 11.656 72.6445 11.456C72.4205 11.344 71.9605 11.2 71.2645 11.024C70.5365 10.832 70.0325 10.648 69.7525 10.472C69.2805 10.192 69.0445 9.796 69.0445 9.284C69.0445 8.78 69.2685 8.376 69.7165 8.072C70.1405 7.776 70.6845 7.628 71.3485 7.628ZM77.8664 7.628C78.7784 7.628 79.5104 7.956 80.0624 8.612C80.5664 9.22 80.8184 9.984 80.8184 10.904C80.8184 11.808 80.5664 12.568 80.0624 13.184C79.5024 13.84 78.7704 14.168 77.8664 14.168C76.9624 14.168 76.2304 13.84 75.6704 13.184C75.1664 12.568 74.9144 11.808 74.9144 10.904C74.9144 9.984 75.1704 9.22 75.6824 8.612C76.2184 7.956 76.9464 7.628 77.8664 7.628ZM77.8664 8.252C77.1544 8.252 76.5984 8.524 76.1984 9.068C75.8304 9.54 75.6464 10.152 75.6464 10.904C75.6464 11.648 75.8304 12.256 76.1984 12.728C76.6064 13.272 77.1624 13.544 77.8664 13.544C78.5784 13.544 79.1384 13.272 79.5464 12.728C79.9144 12.224 80.0984 11.616 80.0984 10.904C80.0984 10.168 79.9144 9.556 79.5464 9.068C79.1464 8.524 78.5864 8.252 77.8664 8.252ZM84.8279 7.628C86.3639 7.628 87.1319 8.48 87.1319 10.184V14H86.4119V10.232C86.4119 8.912 85.8239 8.252 84.6479 8.252C84.1519 8.252 83.7359 8.432 83.3999 8.792C83.0479 9.144 82.8519 9.632 82.8119 10.256V14H82.0919V7.796H82.8119V8.816C83.0279 8.448 83.3079 8.156 83.6519 7.94C83.9879 7.732 84.3799 7.628 84.8279 7.628ZM91.2707 7.628C92.1427 7.628 92.7867 7.864 93.2027 8.336C93.5707 8.744 93.7547 9.3 93.7547 10.004V14H93.0707V12.812C92.8147 13.18 92.4787 13.488 92.0627 13.736C91.5747 14.024 91.0347 14.168 90.4427 14.168C89.8347 14.168 89.3427 14.012 88.9667 13.7C88.5907 13.38 88.4027 12.952 88.4027 12.416C88.4027 11.624 88.7267 11.048 89.3747 10.688C89.8947 10.392 90.5867 10.244 91.4507 10.244L93.0347 10.232V10.004C93.0347 8.828 92.4347 8.24 91.2347 8.24C90.6827 8.24 90.2507 8.356 89.9387 8.588C89.5867 8.82 89.3747 9.18 89.3027 9.668H88.5947C88.6907 8.972 88.9827 8.452 89.4707 8.108C89.9187 7.788 90.5187 7.628 91.2707 7.628ZM93.0347 10.82L91.4867 10.832C89.9187 10.84 89.1347 11.364 89.1347 12.404C89.1347 12.748 89.2667 13.028 89.5307 13.244C89.7867 13.46 90.1387 13.568 90.5867 13.568C91.2347 13.568 91.8107 13.352 92.3147 12.92C92.7947 12.496 93.0347 12.036 93.0347 11.54V10.82ZM95.4918 5.264H96.2118V14H95.4918V5.264ZM102.064 5.432H105.544C107.448 5.432 108.4 6.252 108.4 7.892C108.4 9.54 107.444 10.364 105.532 10.364H102.796V14H102.064V5.432ZM102.796 6.08V9.716H105.496C106.224 9.716 106.772 9.564 107.14 9.26C107.484 8.956 107.656 8.5 107.656 7.892C107.656 7.292 107.484 6.844 107.14 6.548C106.78 6.236 106.232 6.08 105.496 6.08H102.796ZM112.153 7.628C112.537 7.628 112.837 7.672 113.053 7.76V8.492C112.757 8.404 112.441 8.36 112.105 8.36C111.537 8.36 111.089 8.608 110.761 9.104C110.433 9.552 110.269 10.092 110.269 10.724V14H109.549V7.796H110.269V8.984C110.437 8.592 110.665 8.284 110.953 8.06C111.289 7.772 111.689 7.628 112.153 7.628ZM116.585 7.628C117.497 7.628 118.229 7.956 118.781 8.612C119.285 9.22 119.537 9.984 119.537 10.904C119.537 11.808 119.285 12.568 118.781 13.184C118.221 13.84 117.489 14.168 116.585 14.168C115.681 14.168 114.949 13.84 114.389 13.184C113.885 12.568 113.633 11.808 113.633 10.904C113.633 9.984 113.889 9.22 114.401 8.612C114.937 7.956 115.665 7.628 116.585 7.628ZM116.585 8.252C115.873 8.252 115.317 8.524 114.917 9.068C114.549 9.54 114.365 10.152 114.365 10.904C114.365 11.648 114.549 12.256 114.917 12.728C115.325 13.272 115.881 13.544 116.585 13.544C117.297 13.544 117.857 13.272 118.265 12.728C118.633 12.224 118.817 11.616 118.817 10.904C118.817 10.168 118.633 9.556 118.265 9.068C117.865 8.524 117.305 8.252 116.585 8.252ZM124.435 5.432V6.068H123.391C123.071 6.068 122.843 6.148 122.707 6.308C122.563 6.46 122.491 6.716 122.491 7.076V7.796H126.283V14H125.563V8.42H122.491V14H121.771V8.42H120.115V7.796H121.771V7.064C121.771 6.536 121.899 6.14 122.155 5.876C122.419 5.58 122.811 5.432 123.331 5.432H124.435ZM128.246 5.264H128.966V14H128.246V5.264ZM133.209 7.628C134.193 7.628 134.929 7.96 135.417 8.624C135.857 9.216 136.093 10.044 136.125 11.108H131.085C131.125 11.868 131.329 12.464 131.697 12.896C132.081 13.328 132.593 13.544 133.233 13.544C133.785 13.544 134.241 13.396 134.601 13.1C134.889 12.852 135.109 12.488 135.261 12.008H135.993C135.849 12.608 135.573 13.1 135.165 13.484C134.661 13.94 134.017 14.168 133.233 14.168C132.361 14.168 131.665 13.872 131.145 13.28C130.609 12.688 130.341 11.892 130.341 10.892C130.341 9.98 130.597 9.216 131.109 8.6C131.637 7.952 132.337 7.628 133.209 7.628ZM133.221 8.252C132.605 8.252 132.113 8.464 131.745 8.888C131.369 9.312 131.153 9.856 131.097 10.52H135.369C135.249 9.008 134.533 8.252 133.221 8.252ZM142.772 5.792V7.796H144.392V8.42H142.772V12.62C142.772 12.892 142.82 13.088 142.916 13.208C143.012 13.32 143.192 13.376 143.456 13.376H144.236V14H143.36C142.88 14 142.536 13.876 142.328 13.628C142.144 13.42 142.052 13.084 142.052 12.62V8.42H140.732V7.796H142.052V6.092L142.772 5.792ZM148.107 7.628C148.979 7.628 149.623 7.864 150.039 8.336C150.407 8.744 150.591 9.3 150.591 10.004V14H149.907V12.812C149.651 13.18 149.315 13.488 148.899 13.736C148.411 14.024 147.871 14.168 147.279 14.168C146.671 14.168 146.179 14.012 145.803 13.7C145.427 13.38 145.239 12.952 145.239 12.416C145.239 11.624 145.563 11.048 146.211 10.688C146.731 10.392 147.423 10.244 148.287 10.244L149.871 10.232V10.004C149.871 8.828 149.271 8.24 148.071 8.24C147.519 8.24 147.087 8.356 146.775 8.588C146.423 8.82 146.211 9.18 146.139 9.668H145.431C145.527 8.972 145.819 8.452 146.307 8.108C146.755 7.788 147.355 7.628 148.107 7.628ZM149.871 10.82L148.323 10.832C146.755 10.84 145.971 11.364 145.971 12.404C145.971 12.748 146.103 13.028 146.367 13.244C146.623 13.46 146.975 13.568 147.423 13.568C148.071 13.568 148.647 13.352 149.151 12.92C149.631 12.496 149.871 12.036 149.871 11.54V10.82ZM154.656 7.628C155.68 7.628 156.42 8.1 156.876 9.044V7.796H157.596V13.544C157.596 15.544 156.668 16.544 154.812 16.544C154.004 16.544 153.376 16.368 152.928 16.016C152.504 15.68 152.24 15.184 152.136 14.528H152.856C152.944 14.992 153.136 15.336 153.432 15.56C153.752 15.816 154.212 15.944 154.812 15.944C156.188 15.944 156.876 15.172 156.876 13.628V12.44C156.42 13.384 155.68 13.856 154.656 13.856C153.792 13.856 153.1 13.548 152.58 12.932C152.1 12.356 151.86 11.628 151.86 10.748C151.86 9.868 152.1 9.14 152.58 8.564C153.1 7.94 153.792 7.628 154.656 7.628ZM154.74 8.24C154.052 8.24 153.52 8.488 153.144 8.984C152.776 9.432 152.592 10.02 152.592 10.748C152.592 11.452 152.764 12.028 153.108 12.476C153.484 12.98 154.024 13.232 154.728 13.232C155.416 13.232 155.952 12.992 156.336 12.512C156.696 12.056 156.876 11.468 156.876 10.748C156.876 10.028 156.696 9.44 156.336 8.984C155.96 8.488 155.428 8.24 154.74 8.24Z" fill="#1C5DFF"/>
<rect x="183" width="167" height="20" rx="10" fill="#1C5DFF"/>
<rect x="183" width="167" height="20" rx="10" fill="white" fill-opacity="0.9"/>
<path d="M191.876 5.432H192.608V10.688C192.608 11.616 192.808 12.308 193.208 12.764C193.64 13.26 194.308 13.508 195.212 13.508C196.116 13.508 196.784 13.26 197.216 12.764C197.616 12.292 197.816 11.6 197.816 10.688V5.432H198.548V10.688C198.548 11.792 198.28 12.644 197.744 13.244C197.176 13.86 196.332 14.168 195.212 14.168C194.092 14.168 193.252 13.864 192.692 13.256C192.148 12.664 191.876 11.808 191.876 10.688V5.432ZM202.918 7.628C204.454 7.628 205.222 8.48 205.222 10.184V14H204.502V10.232C204.502 8.912 203.914 8.252 202.738 8.252C202.242 8.252 201.826 8.432 201.49 8.792C201.138 9.144 200.942 9.632 200.902 10.256V14H200.182V7.796H200.902V8.816C201.118 8.448 201.398 8.156 201.742 7.94C202.078 7.732 202.47 7.628 202.918 7.628ZM207.453 5.564C207.621 5.564 207.765 5.624 207.885 5.744C208.005 5.84 208.065 5.98 208.065 6.164C208.065 6.324 208.001 6.468 207.873 6.596C207.745 6.708 207.605 6.764 207.453 6.764C207.277 6.764 207.133 6.708 207.021 6.596C206.901 6.476 206.841 6.332 206.841 6.164C206.841 5.98 206.901 5.84 207.021 5.744C207.133 5.624 207.277 5.564 207.453 5.564ZM207.093 7.796H207.813V14H207.093V7.796ZM212.23 7.628C213.222 7.628 213.946 8.092 214.402 9.02V7.796H215.086V16.376H214.366V12.704C213.91 13.68 213.186 14.168 212.194 14.168C211.306 14.168 210.618 13.84 210.13 13.184C209.674 12.584 209.446 11.828 209.446 10.916C209.446 9.98 209.678 9.216 210.142 8.624C210.638 7.96 211.334 7.628 212.23 7.628ZM212.302 8.24C211.59 8.24 211.05 8.508 210.682 9.044C210.354 9.5 210.19 10.124 210.19 10.916C210.19 11.7 210.362 12.324 210.706 12.788C211.074 13.3 211.614 13.556 212.326 13.556C212.966 13.556 213.47 13.316 213.838 12.836C214.206 12.348 214.39 11.736 214.39 11V10.868C214.39 10.124 214.218 9.512 213.874 9.032C213.49 8.504 212.966 8.24 212.302 8.24ZM216.6 7.796H217.32V11.588C217.32 12.236 217.456 12.72 217.728 13.04C218.016 13.376 218.46 13.544 219.06 13.544C219.532 13.544 219.952 13.36 220.32 12.992C220.68 12.632 220.884 12.156 220.932 11.564V7.796H221.652V14H220.932V12.956C220.452 13.764 219.764 14.168 218.868 14.168C217.356 14.168 216.6 13.32 216.6 11.624V7.796ZM225.67 7.628C226.654 7.628 227.39 7.96 227.878 8.624C228.318 9.216 228.554 10.044 228.586 11.108H223.546C223.586 11.868 223.79 12.464 224.158 12.896C224.542 13.328 225.054 13.544 225.694 13.544C226.246 13.544 226.702 13.396 227.062 13.1C227.35 12.852 227.57 12.488 227.722 12.008H228.454C228.31 12.608 228.034 13.1 227.626 13.484C227.122 13.94 226.478 14.168 225.694 14.168C224.822 14.168 224.126 13.872 223.606 13.28C223.07 12.688 222.802 11.892 222.802 10.892C222.802 9.98 223.058 9.216 223.57 8.6C224.098 7.952 224.798 7.628 225.67 7.628ZM225.682 8.252C225.066 8.252 224.574 8.464 224.206 8.888C223.83 9.312 223.614 9.856 223.558 10.52H227.83C227.71 9.008 226.994 8.252 225.682 8.252ZM233.853 5.432H237.333C239.237 5.432 240.189 6.252 240.189 7.892C240.189 9.54 239.233 10.364 237.321 10.364H234.585V14H233.853V5.432ZM234.585 6.08V9.716H237.285C238.013 9.716 238.561 9.564 238.929 9.26C239.273 8.956 239.445 8.5 239.445 7.892C239.445 7.292 239.273 6.844 238.929 6.548C238.569 6.236 238.021 6.08 237.285 6.08H234.585ZM243.846 7.628C244.83 7.628 245.566 7.96 246.054 8.624C246.494 9.216 246.73 10.044 246.762 11.108H241.722C241.762 11.868 241.966 12.464 242.334 12.896C242.718 13.328 243.23 13.544 243.87 13.544C244.422 13.544 244.878 13.396 245.238 13.1C245.526 12.852 245.746 12.488 245.898 12.008H246.63C246.486 12.608 246.21 13.1 245.802 13.484C245.298 13.94 244.654 14.168 243.87 14.168C242.998 14.168 242.302 13.872 241.782 13.28C241.246 12.688 240.978 11.892 240.978 10.892C240.978 9.98 241.234 9.216 241.746 8.6C242.274 7.952 242.974 7.628 243.846 7.628ZM243.858 8.252C243.242 8.252 242.75 8.464 242.382 8.888C242.006 9.312 241.79 9.856 241.734 10.52H246.006C245.886 9.008 245.17 8.252 243.858 8.252ZM250.516 7.628C250.9 7.628 251.2 7.672 251.416 7.76V8.492C251.12 8.404 250.804 8.36 250.468 8.36C249.9 8.36 249.452 8.608 249.124 9.104C248.796 9.552 248.632 10.092 248.632 10.724V14H247.912V7.796H248.632V8.984C248.8 8.592 249.028 8.284 249.316 8.06C249.652 7.772 250.052 7.628 250.516 7.628ZM254.348 7.628C255.82 7.628 256.644 8.264 256.82 9.536H256.112C256.032 9.104 255.86 8.788 255.596 8.588C255.316 8.364 254.896 8.252 254.336 8.252C253.872 8.252 253.5 8.344 253.22 8.528C252.932 8.72 252.788 8.968 252.788 9.272C252.788 9.584 252.972 9.836 253.34 10.028C253.588 10.148 254.024 10.292 254.648 10.46C255.408 10.652 255.944 10.844 256.256 11.036C256.752 11.34 257 11.756 257 12.284C257 13.54 256.16 14.168 254.48 14.168C252.888 14.168 252.02 13.46 251.876 12.044H252.584C252.656 12.588 252.848 12.98 253.16 13.22C253.448 13.436 253.88 13.544 254.456 13.544C255.656 13.544 256.256 13.136 256.256 12.32C256.256 11.944 256.052 11.656 255.644 11.456C255.42 11.344 254.96 11.2 254.264 11.024C253.536 10.832 253.032 10.648 252.752 10.472C252.28 10.192 252.044 9.796 252.044 9.284C252.044 8.78 252.268 8.376 252.716 8.072C253.14 7.776 253.684 7.628 254.348 7.628ZM260.866 7.628C261.778 7.628 262.51 7.956 263.062 8.612C263.566 9.22 263.818 9.984 263.818 10.904C263.818 11.808 263.566 12.568 263.062 13.184C262.502 13.84 261.77 14.168 260.866 14.168C259.962 14.168 259.23 13.84 258.67 13.184C258.166 12.568 257.914 11.808 257.914 10.904C257.914 9.984 258.17 9.22 258.682 8.612C259.218 7.956 259.946 7.628 260.866 7.628ZM260.866 8.252C260.154 8.252 259.598 8.524 259.198 9.068C258.83 9.54 258.646 10.152 258.646 10.904C258.646 11.648 258.83 12.256 259.198 12.728C259.606 13.272 260.162 13.544 260.866 13.544C261.578 13.544 262.138 13.272 262.546 12.728C262.914 12.224 263.098 11.616 263.098 10.904C263.098 10.168 262.914 9.556 262.546 9.068C262.146 8.524 261.586 8.252 260.866 8.252ZM267.828 7.628C269.364 7.628 270.132 8.48 270.132 10.184V14H269.412V10.232C269.412 8.912 268.824 8.252 267.648 8.252C267.152 8.252 266.736 8.432 266.4 8.792C266.048 9.144 265.852 9.632 265.812 10.256V14H265.092V7.796H265.812V8.816C266.028 8.448 266.308 8.156 266.652 7.94C266.988 7.732 267.38 7.628 267.828 7.628ZM274.271 7.628C275.143 7.628 275.787 7.864 276.203 8.336C276.571 8.744 276.755 9.3 276.755 10.004V14H276.071V12.812C275.815 13.18 275.479 13.488 275.063 13.736C274.575 14.024 274.035 14.168 273.443 14.168C272.835 14.168 272.343 14.012 271.967 13.7C271.591 13.38 271.403 12.952 271.403 12.416C271.403 11.624 271.727 11.048 272.375 10.688C272.895 10.392 273.587 10.244 274.451 10.244L276.035 10.232V10.004C276.035 8.828 275.435 8.24 274.235 8.24C273.683 8.24 273.251 8.356 272.939 8.588C272.587 8.82 272.375 9.18 272.303 9.668H271.595C271.691 8.972 271.983 8.452 272.471 8.108C272.919 7.788 273.519 7.628 274.271 7.628ZM276.035 10.82L274.487 10.832C272.919 10.84 272.135 11.364 272.135 12.404C272.135 12.748 272.267 13.028 272.531 13.244C272.787 13.46 273.139 13.568 273.587 13.568C274.235 13.568 274.811 13.352 275.315 12.92C275.795 12.496 276.035 12.036 276.035 11.54V10.82ZM278.492 5.264H279.212V14H278.492V5.264ZM285.064 5.432H288.544C290.448 5.432 291.4 6.252 291.4 7.892C291.4 9.54 290.444 10.364 288.532 10.364H285.796V14H285.064V5.432ZM285.796 6.08V9.716H288.496C289.224 9.716 289.772 9.564 290.14 9.26C290.484 8.956 290.656 8.5 290.656 7.892C290.656 7.292 290.484 6.844 290.14 6.548C289.78 6.236 289.232 6.08 288.496 6.08H285.796ZM295.153 7.628C295.537 7.628 295.837 7.672 296.053 7.76V8.492C295.757 8.404 295.441 8.36 295.105 8.36C294.537 8.36 294.089 8.608 293.761 9.104C293.433 9.552 293.269 10.092 293.269 10.724V14H292.549V7.796H293.269V8.984C293.437 8.592 293.665 8.284 293.953 8.06C294.289 7.772 294.689 7.628 295.153 7.628ZM299.585 7.628C300.497 7.628 301.229 7.956 301.781 8.612C302.285 9.22 302.537 9.984 302.537 10.904C302.537 11.808 302.285 12.568 301.781 13.184C301.221 13.84 300.489 14.168 299.585 14.168C298.681 14.168 297.949 13.84 297.389 13.184C296.885 12.568 296.633 11.808 296.633 10.904C296.633 9.984 296.889 9.22 297.401 8.612C297.937 7.956 298.665 7.628 299.585 7.628ZM299.585 8.252C298.873 8.252 298.317 8.524 297.917 9.068C297.549 9.54 297.365 10.152 297.365 10.904C297.365 11.648 297.549 12.256 297.917 12.728C298.325 13.272 298.881 13.544 299.585 13.544C300.297 13.544 300.857 13.272 301.265 12.728C301.633 12.224 301.817 11.616 301.817 10.904C301.817 10.168 301.633 9.556 301.265 9.068C300.865 8.524 300.305 8.252 299.585 8.252ZM307.435 5.432V6.068H306.391C306.071 6.068 305.843 6.148 305.707 6.308C305.563 6.46 305.491 6.716 305.491 7.076V7.796H309.283V14H308.563V8.42H305.491V14H304.771V8.42H303.115V7.796H304.771V7.064C304.771 6.536 304.899 6.14 305.155 5.876C305.419 5.58 305.811 5.432 306.331 5.432H307.435ZM311.246 5.264H311.966V14H311.246V5.264ZM316.209 7.628C317.193 7.628 317.929 7.96 318.417 8.624C318.857 9.216 319.093 10.044 319.125 11.108H314.085C314.125 11.868 314.329 12.464 314.697 12.896C315.081 13.328 315.593 13.544 316.233 13.544C316.785 13.544 317.241 13.396 317.601 13.1C317.889 12.852 318.109 12.488 318.261 12.008H318.993C318.849 12.608 318.573 13.1 318.165 13.484C317.661 13.94 317.017 14.168 316.233 14.168C315.361 14.168 314.665 13.872 314.145 13.28C313.609 12.688 313.341 11.892 313.341 10.892C313.341 9.98 313.597 9.216 314.109 8.6C314.637 7.952 315.337 7.628 316.209 7.628ZM316.221 8.252C315.605 8.252 315.113 8.464 314.745 8.888C314.369 9.312 314.153 9.856 314.097 10.52H318.369C318.249 9.008 317.533 8.252 316.221 8.252ZM325.772 5.792V7.796H327.392V8.42H325.772V12.62C325.772 12.892 325.82 13.088 325.916 13.208C326.012 13.32 326.192 13.376 326.456 13.376H327.236V14H326.36C325.88 14 325.536 13.876 325.328 13.628C325.144 13.42 325.052 13.084 325.052 12.62V8.42H323.732V7.796H325.052V6.092L325.772 5.792ZM331.107 7.628C331.979 7.628 332.623 7.864 333.039 8.336C333.407 8.744 333.591 9.3 333.591 10.004V14H332.907V12.812C332.651 13.18 332.315 13.488 331.899 13.736C331.411 14.024 330.871 14.168 330.279 14.168C329.671 14.168 329.179 14.012 328.803 13.7C328.427 13.38 328.239 12.952 328.239 12.416C328.239 11.624 328.563 11.048 329.211 10.688C329.731 10.392 330.423 10.244 331.287 10.244L332.871 10.232V10.004C332.871 8.828 332.271 8.24 331.071 8.24C330.519 8.24 330.087 8.356 329.775 8.588C329.423 8.82 329.211 9.18 329.139 9.668H328.431C328.527 8.972 328.819 8.452 329.307 8.108C329.755 7.788 330.355 7.628 331.107 7.628ZM332.871 10.82L331.323 10.832C329.755 10.84 328.971 11.364 328.971 12.404C328.971 12.748 329.103 13.028 329.367 13.244C329.623 13.46 329.975 13.568 330.423 13.568C331.071 13.568 331.647 13.352 332.151 12.92C332.631 12.496 332.871 12.036 332.871 11.54V10.82ZM337.656 7.628C338.68 7.628 339.42 8.1 339.876 9.044V7.796H340.596V13.544C340.596 15.544 339.668 16.544 337.812 16.544C337.004 16.544 336.376 16.368 335.928 16.016C335.504 15.68 335.24 15.184 335.136 14.528H335.856C335.944 14.992 336.136 15.336 336.432 15.56C336.752 15.816 337.212 15.944 337.812 15.944C339.188 15.944 339.876 15.172 339.876 13.628V12.44C339.42 13.384 338.68 13.856 337.656 13.856C336.792 13.856 336.1 13.548 335.58 12.932C335.1 12.356 334.86 11.628 334.86 10.748C334.86 9.868 335.1 9.14 335.58 8.564C336.1 7.94 336.792 7.628 337.656 7.628ZM337.74 8.24C337.052 8.24 336.52 8.488 336.144 8.984C335.776 9.432 335.592 10.02 335.592 10.748C335.592 11.452 335.764 12.028 336.108 12.476C336.484 12.98 337.024 13.232 337.728 13.232C338.416 13.232 338.952 12.992 339.336 12.512C339.696 12.056 339.876 11.468 339.876 10.748C339.876 10.028 339.696 9.44 339.336 8.984C338.96 8.488 338.428 8.24 337.74 8.24Z" fill="#1C5DFF"/>
<rect x="366" width="128" height="20" rx="10" fill="#1C5DFF"/>
<rect x="366" width="128" height="20" rx="10" fill="white" fill-opacity="0.9"/>
<path d="M374.876 5.432H375.608V10.688C375.608 11.616 375.808 12.308 376.208 12.764C376.64 13.26 377.308 13.508 378.212 13.508C379.116 13.508 379.784 13.26 380.216 12.764C380.616 12.292 380.816 11.6 380.816 10.688V5.432H381.548V10.688C381.548 11.792 381.28 12.644 380.744 13.244C380.176 13.86 379.332 14.168 378.212 14.168C377.092 14.168 376.252 13.864 375.692 13.256C375.148 12.664 374.876 11.808 374.876 10.688V5.432ZM385.918 7.628C387.454 7.628 388.222 8.48 388.222 10.184V14H387.502V10.232C387.502 8.912 386.914 8.252 385.738 8.252C385.242 8.252 384.826 8.432 384.49 8.792C384.138 9.144 383.942 9.632 383.902 10.256V14H383.182V7.796H383.902V8.816C384.118 8.448 384.398 8.156 384.742 7.94C385.078 7.732 385.47 7.628 385.918 7.628ZM390.453 5.564C390.621 5.564 390.765 5.624 390.885 5.744C391.005 5.84 391.065 5.98 391.065 6.164C391.065 6.324 391.001 6.468 390.873 6.596C390.745 6.708 390.605 6.764 390.453 6.764C390.277 6.764 390.133 6.708 390.021 6.596C389.901 6.476 389.841 6.332 389.841 6.164C389.841 5.98 389.901 5.84 390.021 5.744C390.133 5.624 390.277 5.564 390.453 5.564ZM390.093 7.796H390.813V14H390.093V7.796ZM395.23 7.628C396.222 7.628 396.946 8.092 397.402 9.02V7.796H398.086V16.376H397.366V12.704C396.91 13.68 396.186 14.168 395.194 14.168C394.306 14.168 393.618 13.84 393.13 13.184C392.674 12.584 392.446 11.828 392.446 10.916C392.446 9.98 392.678 9.216 393.142 8.624C393.638 7.96 394.334 7.628 395.23 7.628ZM395.302 8.24C394.59 8.24 394.05 8.508 393.682 9.044C393.354 9.5 393.19 10.124 393.19 10.916C393.19 11.7 393.362 12.324 393.706 12.788C394.074 13.3 394.614 13.556 395.326 13.556C395.966 13.556 396.47 13.316 396.838 12.836C397.206 12.348 397.39 11.736 397.39 11V10.868C397.39 10.124 397.218 9.512 396.874 9.032C396.49 8.504 395.966 8.24 395.302 8.24ZM399.6 7.796H400.32V11.588C400.32 12.236 400.456 12.72 400.728 13.04C401.016 13.376 401.46 13.544 402.06 13.544C402.532 13.544 402.952 13.36 403.32 12.992C403.68 12.632 403.884 12.156 403.932 11.564V7.796H404.652V14H403.932V12.956C403.452 13.764 402.764 14.168 401.868 14.168C400.356 14.168 399.6 13.32 399.6 11.624V7.796ZM408.67 7.628C409.654 7.628 410.39 7.96 410.878 8.624C411.318 9.216 411.554 10.044 411.586 11.108H406.546C406.586 11.868 406.79 12.464 407.158 12.896C407.542 13.328 408.054 13.544 408.694 13.544C409.246 13.544 409.702 13.396 410.062 13.1C410.35 12.852 410.57 12.488 410.722 12.008H411.454C411.31 12.608 411.034 13.1 410.626 13.484C410.122 13.94 409.478 14.168 408.694 14.168C407.822 14.168 407.126 13.872 406.606 13.28C406.07 12.688 405.802 11.892 405.802 10.892C405.802 9.98 406.058 9.216 406.57 8.6C407.098 7.952 407.798 7.628 408.67 7.628ZM408.682 8.252C408.066 8.252 407.574 8.464 407.206 8.888C406.83 9.312 406.614 9.856 406.558 10.52H410.83C410.71 9.008 409.994 8.252 408.682 8.252ZM416.853 5.432H420.333C422.237 5.432 423.189 6.252 423.189 7.892C423.189 9.54 422.233 10.364 420.321 10.364H417.585V14H416.853V5.432ZM417.585 6.08V9.716H420.285C421.013 9.716 421.561 9.564 421.929 9.26C422.273 8.956 422.445 8.5 422.445 7.892C422.445 7.292 422.273 6.844 421.929 6.548C421.569 6.236 421.021 6.08 420.285 6.08H417.585ZM426.846 7.628C427.83 7.628 428.566 7.96 429.054 8.624C429.494 9.216 429.73 10.044 429.762 11.108H424.722C424.762 11.868 424.966 12.464 425.334 12.896C425.718 13.328 426.23 13.544 426.87 13.544C427.422 13.544 427.878 13.396 428.238 13.1C428.526 12.852 428.746 12.488 428.898 12.008H429.63C429.486 12.608 429.21 13.1 428.802 13.484C428.298 13.94 427.654 14.168 426.87 14.168C425.998 14.168 425.302 13.872 424.782 13.28C424.246 12.688 423.978 11.892 423.978 10.892C423.978 9.98 424.234 9.216 424.746 8.6C425.274 7.952 425.974 7.628 426.846 7.628ZM426.858 8.252C426.242 8.252 425.75 8.464 425.382 8.888C425.006 9.312 424.79 9.856 424.734 10.52H429.006C428.886 9.008 428.17 8.252 426.858 8.252ZM433.516 7.628C433.9 7.628 434.2 7.672 434.416 7.76V8.492C434.12 8.404 433.804 8.36 433.468 8.36C432.9 8.36 432.452 8.608 432.124 9.104C431.796 9.552 431.632 10.092 431.632 10.724V14H430.912V7.796H431.632V8.984C431.8 8.592 432.028 8.284 432.316 8.06C432.652 7.772 433.052 7.628 433.516 7.628ZM437.348 7.628C438.82 7.628 439.644 8.264 439.82 9.536H439.112C439.032 9.104 438.86 8.788 438.596 8.588C438.316 8.364 437.896 8.252 437.336 8.252C436.872 8.252 436.5 8.344 436.22 8.528C435.932 8.72 435.788 8.968 435.788 9.272C435.788 9.584 435.972 9.836 436.34 10.028C436.588 10.148 437.024 10.292 437.648 10.46C438.408 10.652 438.944 10.844 439.256 11.036C439.752 11.34 440 11.756 440 12.284C440 13.54 439.16 14.168 437.48 14.168C435.888 14.168 435.02 13.46 434.876 12.044H435.584C435.656 12.588 435.848 12.98 436.16 13.22C436.448 13.436 436.88 13.544 437.456 13.544C438.656 13.544 439.256 13.136 439.256 12.32C439.256 11.944 439.052 11.656 438.644 11.456C438.42 11.344 437.96 11.2 437.264 11.024C436.536 10.832 436.032 10.648 435.752 10.472C435.28 10.192 435.044 9.796 435.044 9.284C435.044 8.78 435.268 8.376 435.716 8.072C436.14 7.776 436.684 7.628 437.348 7.628ZM443.866 7.628C444.778 7.628 445.51 7.956 446.062 8.612C446.566 9.22 446.818 9.984 446.818 10.904C446.818 11.808 446.566 12.568 446.062 13.184C445.502 13.84 444.77 14.168 443.866 14.168C442.962 14.168 442.23 13.84 441.67 13.184C441.166 12.568 440.914 11.808 440.914 10.904C440.914 9.984 441.17 9.22 441.682 8.612C442.218 7.956 442.946 7.628 443.866 7.628ZM443.866 8.252C443.154 8.252 442.598 8.524 442.198 9.068C441.83 9.54 441.646 10.152 441.646 10.904C441.646 11.648 441.83 12.256 442.198 12.728C442.606 13.272 443.162 13.544 443.866 13.544C444.578 13.544 445.138 13.272 445.546 12.728C445.914 12.224 446.098 11.616 446.098 10.904C446.098 10.168 445.914 9.556 445.546 9.068C445.146 8.524 444.586 8.252 443.866 8.252ZM450.828 7.628C452.364 7.628 453.132 8.48 453.132 10.184V14H452.412V10.232C452.412 8.912 451.824 8.252 450.648 8.252C450.152 8.252 449.736 8.432 449.4 8.792C449.048 9.144 448.852 9.632 448.812 10.256V14H448.092V7.796H448.812V8.816C449.028 8.448 449.308 8.156 449.652 7.94C449.988 7.732 450.38 7.628 450.828 7.628ZM457.271 7.628C458.143 7.628 458.787 7.864 459.203 8.336C459.571 8.744 459.755 9.3 459.755 10.004V14H459.071V12.812C458.815 13.18 458.479 13.488 458.063 13.736C457.575 14.024 457.035 14.168 456.443 14.168C455.835 14.168 455.343 14.012 454.967 13.7C454.591 13.38 454.403 12.952 454.403 12.416C454.403 11.624 454.727 11.048 455.375 10.688C455.895 10.392 456.587 10.244 457.451 10.244L459.035 10.232V10.004C459.035 8.828 458.435 8.24 457.235 8.24C456.683 8.24 456.251 8.356 455.939 8.588C455.587 8.82 455.375 9.18 455.303 9.668H454.595C454.691 8.972 454.983 8.452 455.471 8.108C455.919 7.788 456.519 7.628 457.271 7.628ZM459.035 10.82L457.487 10.832C455.919 10.84 455.135 11.364 455.135 12.404C455.135 12.748 455.267 13.028 455.531 13.244C455.787 13.46 456.139 13.568 456.587 13.568C457.235 13.568 457.811 13.352 458.315 12.92C458.795 12.496 459.035 12.036 459.035 11.54V10.82ZM461.492 5.264H462.212V14H461.492V5.264ZM469.444 5.792V7.796H471.064V8.42H469.444V12.62C469.444 12.892 469.492 13.088 469.588 13.208C469.684 13.32 469.864 13.376 470.128 13.376H470.908V14H470.032C469.552 14 469.208 13.876 469 13.628C468.816 13.42 468.724 13.084 468.724 12.62V8.42H467.404V7.796H468.724V6.092L469.444 5.792ZM474.779 7.628C475.651 7.628 476.295 7.864 476.711 8.336C477.079 8.744 477.263 9.3 477.263 10.004V14H476.579V12.812C476.323 13.18 475.987 13.488 475.571 13.736C475.083 14.024 474.543 14.168 473.951 14.168C473.343 14.168 472.851 14.012 472.475 13.7C472.099 13.38 471.911 12.952 471.911 12.416C471.911 11.624 472.235 11.048 472.883 10.688C473.403 10.392 474.095 10.244 474.959 10.244L476.543 10.232V10.004C476.543 8.828 475.943 8.24 474.743 8.24C474.191 8.24 473.759 8.356 473.447 8.588C473.095 8.82 472.883 9.18 472.811 9.668H472.103C472.199 8.972 472.491 8.452 472.979 8.108C473.427 7.788 474.027 7.628 474.779 7.628ZM476.543 10.82L474.995 10.832C473.427 10.84 472.643 11.364 472.643 12.404C472.643 12.748 472.775 13.028 473.039 13.244C473.295 13.46 473.647 13.568 474.095 13.568C474.743 13.568 475.319 13.352 475.823 12.92C476.303 12.496 476.543 12.036 476.543 11.54V10.82ZM481.328 7.628C482.352 7.628 483.092 8.1 483.548 9.044V7.796H484.268V13.544C484.268 15.544 483.34 16.544 481.484 16.544C480.676 16.544 480.048 16.368 479.6 16.016C479.176 15.68 478.912 15.184 478.808 14.528H479.528C479.616 14.992 479.808 15.336 480.104 15.56C480.424 15.816 480.884 15.944 481.484 15.944C482.86 15.944 483.548 15.172 483.548 13.628V12.44C483.092 13.384 482.352 13.856 481.328 13.856C480.464 13.856 479.772 13.548 479.252 12.932C478.772 12.356 478.532 11.628 478.532 10.748C478.532 9.868 478.772 9.14 479.252 8.564C479.772 7.94 480.464 7.628 481.328 7.628ZM481.412 8.24C480.724 8.24 480.192 8.488 479.816 8.984C479.448 9.432 479.264 10.02 479.264 10.748C479.264 11.452 479.436 12.028 479.78 12.476C480.156 12.98 480.696 13.232 481.4 13.232C482.088 13.232 482.624 12.992 483.008 12.512C483.368 12.056 483.548 11.468 483.548 10.748C483.548 10.028 483.368 9.44 483.008 8.984C482.632 8.488 482.1 8.24 481.412 8.24Z" fill="#1C5DFF"/>
<rect x="510" width="167" height="20" rx="10" fill="#1C5DFF"/>
<rect x="510" width="167" height="20" rx="10" fill="white" fill-opacity="0.9"/>
<path d="M518.876 5.432H519.608V10.688C519.608 11.616 519.808 12.308 520.208 12.764C520.64 13.26 521.308 13.508 522.212 13.508C523.116 13.508 523.784 13.26 524.216 12.764C524.616 12.292 524.816 11.6 524.816 10.688V5.432H525.548V10.688C525.548 11.792 525.28 12.644 524.744 13.244C524.176 13.86 523.332 14.168 522.212 14.168C521.092 14.168 520.252 13.864 519.692 13.256C519.148 12.664 518.876 11.808 518.876 10.688V5.432ZM529.918 7.628C531.454 7.628 532.222 8.48 532.222 10.184V14H531.502V10.232C531.502 8.912 530.914 8.252 529.738 8.252C529.242 8.252 528.826 8.432 528.49 8.792C528.138 9.144 527.942 9.632 527.902 10.256V14H527.182V7.796H527.902V8.816C528.118 8.448 528.398 8.156 528.742 7.94C529.078 7.732 529.47 7.628 529.918 7.628ZM534.453 5.564C534.621 5.564 534.765 5.624 534.885 5.744C535.005 5.84 535.065 5.98 535.065 6.164C535.065 6.324 535.001 6.468 534.873 6.596C534.745 6.708 534.605 6.764 534.453 6.764C534.277 6.764 534.133 6.708 534.021 6.596C533.901 6.476 533.841 6.332 533.841 6.164C533.841 5.98 533.901 5.84 534.021 5.744C534.133 5.624 534.277 5.564 534.453 5.564ZM534.093 7.796H534.813V14H534.093V7.796ZM539.23 7.628C540.222 7.628 540.946 8.092 541.402 9.02V7.796H542.086V16.376H541.366V12.704C540.91 13.68 540.186 14.168 539.194 14.168C538.306 14.168 537.618 13.84 537.13 13.184C536.674 12.584 536.446 11.828 536.446 10.916C536.446 9.98 536.678 9.216 537.142 8.624C537.638 7.96 538.334 7.628 539.23 7.628ZM539.302 8.24C538.59 8.24 538.05 8.508 537.682 9.044C537.354 9.5 537.19 10.124 537.19 10.916C537.19 11.7 537.362 12.324 537.706 12.788C538.074 13.3 538.614 13.556 539.326 13.556C539.966 13.556 540.47 13.316 540.838 12.836C541.206 12.348 541.39 11.736 541.39 11V10.868C541.39 10.124 541.218 9.512 540.874 9.032C540.49 8.504 539.966 8.24 539.302 8.24ZM543.6 7.796H544.32V11.588C544.32 12.236 544.456 12.72 544.728 13.04C545.016 13.376 545.46 13.544 546.06 13.544C546.532 13.544 546.952 13.36 547.32 12.992C547.68 12.632 547.884 12.156 547.932 11.564V7.796H548.652V14H547.932V12.956C547.452 13.764 546.764 14.168 545.868 14.168C544.356 14.168 543.6 13.32 543.6 11.624V7.796ZM552.67 7.628C553.654 7.628 554.39 7.96 554.878 8.624C555.318 9.216 555.554 10.044 555.586 11.108H550.546C550.586 11.868 550.79 12.464 551.158 12.896C551.542 13.328 552.054 13.544 552.694 13.544C553.246 13.544 553.702 13.396 554.062 13.1C554.35 12.852 554.57 12.488 554.722 12.008H555.454C555.31 12.608 555.034 13.1 554.626 13.484C554.122 13.94 553.478 14.168 552.694 14.168C551.822 14.168 551.126 13.872 550.606 13.28C550.07 12.688 549.802 11.892 549.802 10.892C549.802 9.98 550.058 9.216 550.57 8.6C551.098 7.952 551.798 7.628 552.67 7.628ZM552.682 8.252C552.066 8.252 551.574 8.464 551.206 8.888C550.83 9.312 550.614 9.856 550.558 10.52H554.83C554.71 9.008 553.994 8.252 552.682 8.252ZM560.853 5.432H564.333C566.237 5.432 567.189 6.252 567.189 7.892C567.189 9.54 566.233 10.364 564.321 10.364H561.585V14H560.853V5.432ZM561.585 6.08V9.716H564.285C565.013 9.716 565.561 9.564 565.929 9.26C566.273 8.956 566.445 8.5 566.445 7.892C566.445 7.292 566.273 6.844 565.929 6.548C565.569 6.236 565.021 6.08 564.285 6.08H561.585ZM570.846 7.628C571.83 7.628 572.566 7.96 573.054 8.624C573.494 9.216 573.73 10.044 573.762 11.108H568.722C568.762 11.868 568.966 12.464 569.334 12.896C569.718 13.328 570.23 13.544 570.87 13.544C571.422 13.544 571.878 13.396 572.238 13.1C572.526 12.852 572.746 12.488 572.898 12.008H573.63C573.486 12.608 573.21 13.1 572.802 13.484C572.298 13.94 571.654 14.168 570.87 14.168C569.998 14.168 569.302 13.872 568.782 13.28C568.246 12.688 567.978 11.892 567.978 10.892C567.978 9.98 568.234 9.216 568.746 8.6C569.274 7.952 569.974 7.628 570.846 7.628ZM570.858 8.252C570.242 8.252 569.75 8.464 569.382 8.888C569.006 9.312 568.79 9.856 568.734 10.52H573.006C572.886 9.008 572.17 8.252 570.858 8.252ZM577.516 7.628C577.9 7.628 578.2 7.672 578.416 7.76V8.492C578.12 8.404 577.804 8.36 577.468 8.36C576.9 8.36 576.452 8.608 576.124 9.104C575.796 9.552 575.632 10.092 575.632 10.724V14H574.912V7.796H575.632V8.984C575.8 8.592 576.028 8.284 576.316 8.06C576.652 7.772 577.052 7.628 577.516 7.628ZM581.348 7.628C582.82 7.628 583.644 8.264 583.82 9.536H583.112C583.032 9.104 582.86 8.788 582.596 8.588C582.316 8.364 581.896 8.252 581.336 8.252C580.872 8.252 580.5 8.344 580.22 8.528C579.932 8.72 579.788 8.968 579.788 9.272C579.788 9.584 579.972 9.836 580.34 10.028C580.588 10.148 581.024 10.292 581.648 10.46C582.408 10.652 582.944 10.844 583.256 11.036C583.752 11.34 584 11.756 584 12.284C584 13.54 583.16 14.168 581.48 14.168C579.888 14.168 579.02 13.46 578.876 12.044H579.584C579.656 12.588 579.848 12.98 580.16 13.22C580.448 13.436 580.88 13.544 581.456 13.544C582.656 13.544 583.256 13.136 583.256 12.32C583.256 11.944 583.052 11.656 582.644 11.456C582.42 11.344 581.96 11.2 581.264 11.024C580.536 10.832 580.032 10.648 579.752 10.472C579.28 10.192 579.044 9.796 579.044 9.284C579.044 8.78 579.268 8.376 579.716 8.072C580.14 7.776 580.684 7.628 581.348 7.628ZM587.866 7.628C588.778 7.628 589.51 7.956 590.062 8.612C590.566 9.22 590.818 9.984 590.818 10.904C590.818 11.808 590.566 12.568 590.062 13.184C589.502 13.84 588.77 14.168 587.866 14.168C586.962 14.168 586.23 13.84 585.67 13.184C585.166 12.568 584.914 11.808 584.914 10.904C584.914 9.984 585.17 9.22 585.682 8.612C586.218 7.956 586.946 7.628 587.866 7.628ZM587.866 8.252C587.154 8.252 586.598 8.524 586.198 9.068C585.83 9.54 585.646 10.152 585.646 10.904C585.646 11.648 585.83 12.256 586.198 12.728C586.606 13.272 587.162 13.544 587.866 13.544C588.578 13.544 589.138 13.272 589.546 12.728C589.914 12.224 590.098 11.616 590.098 10.904C590.098 10.168 589.914 9.556 589.546 9.068C589.146 8.524 588.586 8.252 587.866 8.252ZM594.828 7.628C596.364 7.628 597.132 8.48 597.132 10.184V14H596.412V10.232C596.412 8.912 595.824 8.252 594.648 8.252C594.152 8.252 593.736 8.432 593.4 8.792C593.048 9.144 592.852 9.632 592.812 10.256V14H592.092V7.796H592.812V8.816C593.028 8.448 593.308 8.156 593.652 7.94C593.988 7.732 594.38 7.628 594.828 7.628ZM601.271 7.628C602.143 7.628 602.787 7.864 603.203 8.336C603.571 8.744 603.755 9.3 603.755 10.004V14H603.071V12.812C602.815 13.18 602.479 13.488 602.063 13.736C601.575 14.024 601.035 14.168 600.443 14.168C599.835 14.168 599.343 14.012 598.967 13.7C598.591 13.38 598.403 12.952 598.403 12.416C598.403 11.624 598.727 11.048 599.375 10.688C599.895 10.392 600.587 10.244 601.451 10.244L603.035 10.232V10.004C603.035 8.828 602.435 8.24 601.235 8.24C600.683 8.24 600.251 8.356 599.939 8.588C599.587 8.82 599.375 9.18 599.303 9.668H598.595C598.691 8.972 598.983 8.452 599.471 8.108C599.919 7.788 600.519 7.628 601.271 7.628ZM603.035 10.82L601.487 10.832C599.919 10.84 599.135 11.364 599.135 12.404C599.135 12.748 599.267 13.028 599.531 13.244C599.787 13.46 600.139 13.568 600.587 13.568C601.235 13.568 601.811 13.352 602.315 12.92C602.795 12.496 603.035 12.036 603.035 11.54V10.82ZM605.492 5.264H606.212V14H605.492V5.264ZM612.064 5.432H615.544C617.448 5.432 618.4 6.252 618.4 7.892C618.4 9.54 617.444 10.364 615.532 10.364H612.796V14H612.064V5.432ZM612.796 6.08V9.716H615.496C616.224 9.716 616.772 9.564 617.14 9.26C617.484 8.956 617.656 8.5 617.656 7.892C617.656 7.292 617.484 6.844 617.14 6.548C616.78 6.236 616.232 6.08 615.496 6.08H612.796ZM622.153 7.628C622.537 7.628 622.837 7.672 623.053 7.76V8.492C622.757 8.404 622.441 8.36 622.105 8.36C621.537 8.36 621.089 8.608 620.761 9.104C620.433 9.552 620.269 10.092 620.269 10.724V14H619.549V7.796H620.269V8.984C620.437 8.592 620.665 8.284 620.953 8.06C621.289 7.772 621.689 7.628 622.153 7.628ZM626.585 7.628C627.497 7.628 628.229 7.956 628.781 8.612C629.285 9.22 629.537 9.984 629.537 10.904C629.537 11.808 629.285 12.568 628.781 13.184C628.221 13.84 627.489 14.168 626.585 14.168C625.681 14.168 624.949 13.84 624.389 13.184C623.885 12.568 623.633 11.808 623.633 10.904C623.633 9.984 623.889 9.22 624.401 8.612C624.937 7.956 625.665 7.628 626.585 7.628ZM626.585 8.252C625.873 8.252 625.317 8.524 624.917 9.068C624.549 9.54 624.365 10.152 624.365 10.904C624.365 11.648 624.549 12.256 624.917 12.728C625.325 13.272 625.881 13.544 626.585 13.544C627.297 13.544 627.857 13.272 628.265 12.728C628.633 12.224 628.817 11.616 628.817 10.904C628.817 10.168 628.633 9.556 628.265 9.068C627.865 8.524 627.305 8.252 626.585 8.252ZM634.435 5.432V6.068H633.391C633.071 6.068 632.843 6.148 632.707 6.308C632.563 6.46 632.491 6.716 632.491 7.076V7.796H636.283V14H635.563V8.42H632.491V14H631.771V8.42H630.115V7.796H631.771V7.064C631.771 6.536 631.899 6.14 632.155 5.876C632.419 5.58 632.811 5.432 633.331 5.432H634.435ZM638.246 5.264H638.966V14H638.246V5.264ZM643.209 7.628C644.193 7.628 644.929 7.96 645.417 8.624C645.857 9.216 646.093 10.044 646.125 11.108H641.085C641.125 11.868 641.329 12.464 641.697 12.896C642.081 13.328 642.593 13.544 643.233 13.544C643.785 13.544 644.241 13.396 644.601 13.1C644.889 12.852 645.109 12.488 645.261 12.008H645.993C645.849 12.608 645.573 13.1 645.165 13.484C644.661 13.94 644.017 14.168 643.233 14.168C642.361 14.168 641.665 13.872 641.145 13.28C640.609 12.688 640.341 11.892 640.341 10.892C640.341 9.98 640.597 9.216 641.109 8.6C641.637 7.952 642.337 7.628 643.209 7.628ZM643.221 8.252C642.605 8.252 642.113 8.464 641.745 8.888C641.369 9.312 641.153 9.856 641.097 10.52H645.369C645.249 9.008 644.533 8.252 643.221 8.252ZM652.772 5.792V7.796H654.392V8.42H652.772V12.62C652.772 12.892 652.82 13.088 652.916 13.208C653.012 13.32 653.192 13.376 653.456 13.376H654.236V14H653.36C652.88 14 652.536 13.876 652.328 13.628C652.144 13.42 652.052 13.084 652.052 12.62V8.42H650.732V7.796H652.052V6.092L652.772 5.792ZM658.107 7.628C658.979 7.628 659.623 7.864 660.039 8.336C660.407 8.744 660.591 9.3 660.591 10.004V14H659.907V12.812C659.651 13.18 659.315 13.488 658.899 13.736C658.411 14.024 657.871 14.168 657.279 14.168C656.671 14.168 656.179 14.012 655.803 13.7C655.427 13.38 655.239 12.952 655.239 12.416C655.239 11.624 655.563 11.048 656.211 10.688C656.731 10.392 657.423 10.244 658.287 10.244L659.871 10.232V10.004C659.871 8.828 659.271 8.24 658.071 8.24C657.519 8.24 657.087 8.356 656.775 8.588C656.423 8.82 656.211 9.18 656.139 9.668H655.431C655.527 8.972 655.819 8.452 656.307 8.108C656.755 7.788 657.355 7.628 658.107 7.628ZM659.871 10.82L658.323 10.832C656.755 10.84 655.971 11.364 655.971 12.404C655.971 12.748 656.103 13.028 656.367 13.244C656.623 13.46 656.975 13.568 657.423 13.568C658.071 13.568 658.647 13.352 659.151 12.92C659.631 12.496 659.871 12.036 659.871 11.54V10.82ZM664.656 7.628C665.68 7.628 666.42 8.1 666.876 9.044V7.796H667.596V13.544C667.596 15.544 666.668 16.544 664.812 16.544C664.004 16.544 663.376 16.368 662.928 16.016C662.504 15.68 662.24 15.184 662.136 14.528H662.856C662.944 14.992 663.136 15.336 663.432 15.56C663.752 15.816 664.212 15.944 664.812 15.944C666.188 15.944 666.876 15.172 666.876 13.628V12.44C666.42 13.384 665.68 13.856 664.656 13.856C663.792 13.856 663.1 13.548 662.58 12.932C662.1 12.356 661.86 11.628 661.86 10.748C661.86 9.868 662.1 9.14 662.58 8.564C663.1 7.94 663.792 7.628 664.656 7.628ZM664.74 8.24C664.052 8.24 663.52 8.488 663.144 8.984C662.776 9.432 662.592 10.02 662.592 10.748C662.592 11.452 662.764 12.028 663.108 12.476C663.484 12.98 664.024 13.232 664.728 13.232C665.416 13.232 665.952 12.992 666.336 12.512C666.696 12.056 666.876 11.468 666.876 10.748C666.876 10.028 666.696 9.44 666.336 8.984C665.96 8.488 665.428 8.24 664.74 8.24Z" fill="#1C5DFF"/>
<rect y="36" width="167" height="20" rx="10" fill="#1C5DFF"/>
<rect y="36" width="167" height="20" rx="10" fill="white" fill-opacity="0.9"/>
<path d="M8.876 41.432H9.608V46.688C9.608 47.616 9.808 48.308 10.208 48.764C10.64 49.26 11.308 49.508 12.212 49.508C13.116 49.508 13.784 49.26 14.216 48.764C14.616 48.292 14.816 47.6 14.816 46.688V41.432H15.548V46.688C15.548 47.792 15.28 48.644 14.744 49.244C14.176 49.86 13.332 50.168 12.212 50.168C11.092 50.168 10.252 49.864 9.692 49.256C9.148 48.664 8.876 47.808 8.876 46.688V41.432ZM19.9178 43.628C21.4538 43.628 22.2218 44.48 22.2218 46.184V50H21.5018V46.232C21.5018 44.912 20.9138 44.252 19.7378 44.252C19.2418 44.252 18.8258 44.432 18.4898 44.792C18.1378 45.144 17.9418 45.632 17.9018 46.256V50H17.1818V43.796H17.9018V44.816C18.1178 44.448 18.3978 44.156 18.7418 43.94C19.0778 43.732 19.4698 43.628 19.9178 43.628ZM24.4526 41.564C24.6206 41.564 24.7646 41.624 24.8846 41.744C25.0046 41.84 25.0646 41.98 25.0646 42.164C25.0646 42.324 25.0006 42.468 24.8726 42.596C24.7446 42.708 24.6046 42.764 24.4526 42.764C24.2766 42.764 24.1326 42.708 24.0206 42.596C23.9006 42.476 23.8406 42.332 23.8406 42.164C23.8406 41.98 23.9006 41.84 24.0206 41.744C24.1326 41.624 24.2766 41.564 24.4526 41.564ZM24.0926 43.796H24.8126V50H24.0926V43.796ZM29.2297 43.628C30.2217 43.628 30.9457 44.092 31.4017 45.02V43.796H32.0857V52.376H31.3657V48.704C30.9097 49.68 30.1857 50.168 29.1937 50.168C28.3057 50.168 27.6177 49.84 27.1297 49.184C26.6737 48.584 26.4457 47.828 26.4457 46.916C26.4457 45.98 26.6777 45.216 27.1417 44.624C27.6377 43.96 28.3337 43.628 29.2297 43.628ZM29.3017 44.24C28.5897 44.24 28.0497 44.508 27.6817 45.044C27.3537 45.5 27.1897 46.124 27.1897 46.916C27.1897 47.7 27.3617 48.324 27.7057 48.788C28.0737 49.3 28.6137 49.556 29.3257 49.556C29.9657 49.556 30.4697 49.316 30.8377 48.836C31.2057 48.348 31.3897 47.736 31.3897 47V46.868C31.3897 46.124 31.2177 45.512 30.8737 45.032C30.4897 44.504 29.9657 44.24 29.3017 44.24ZM33.5998 43.796H34.3198V47.588C34.3198 48.236 34.4558 48.72 34.7278 49.04C35.0158 49.376 35.4598 49.544 36.0598 49.544C36.5318 49.544 36.9518 49.36 37.3198 48.992C37.6798 48.632 37.8838 48.156 37.9318 47.564V43.796H38.6518V50H37.9318V48.956C37.4518 49.764 36.7638 50.168 35.8678 50.168C34.3558 50.168 33.5998 49.32 33.5998 47.624V43.796ZM42.6703 43.628C43.6543 43.628 44.3903 43.96 44.8783 44.624C45.3183 45.216 45.5543 46.044 45.5863 47.108H40.5463C40.5863 47.868 40.7903 48.464 41.1583 48.896C41.5423 49.328 42.0543 49.544 42.6943 49.544C43.2463 49.544 43.7023 49.396 44.0623 49.1C44.3503 48.852 44.5703 48.488 44.7223 48.008H45.4543C45.3103 48.608 45.0343 49.1 44.6263 49.484C44.1223 49.94 43.4783 50.168 42.6943 50.168C41.8223 50.168 41.1263 49.872 40.6063 49.28C40.0703 48.688 39.8022 47.892 39.8022 46.892C39.8022 45.98 40.0583 45.216 40.5703 44.6C41.0983 43.952 41.7983 43.628 42.6703 43.628ZM42.6823 44.252C42.0663 44.252 41.5743 44.464 41.2063 44.888C40.8303 45.312 40.6143 45.856 40.5583 46.52H44.8303C44.7103 45.008 43.9943 44.252 42.6823 44.252ZM50.8526 41.432H54.3326C56.2366 41.432 57.1886 42.252 57.1886 43.892C57.1886 45.54 56.2326 46.364 54.3206 46.364H51.5846V50H50.8526V41.432ZM51.5846 42.08V45.716H54.2846C55.0126 45.716 55.5606 45.564 55.9286 45.26C56.2726 44.956 56.4446 44.5 56.4446 43.892C56.4446 43.292 56.2726 42.844 55.9286 42.548C55.5686 42.236 55.0206 42.08 54.2846 42.08H51.5846ZM60.846 43.628C61.83 43.628 62.566 43.96 63.054 44.624C63.494 45.216 63.73 46.044 63.762 47.108H58.722C58.762 47.868 58.966 48.464 59.334 48.896C59.718 49.328 60.23 49.544 60.87 49.544C61.422 49.544 61.878 49.396 62.238 49.1C62.526 48.852 62.746 48.488 62.898 48.008H63.63C63.486 48.608 63.21 49.1 62.802 49.484C62.298 49.94 61.654 50.168 60.87 50.168C59.998 50.168 59.302 49.872 58.782 49.28C58.246 48.688 57.978 47.892 57.978 46.892C57.978 45.98 58.234 45.216 58.746 44.6C59.274 43.952 59.974 43.628 60.846 43.628ZM60.858 44.252C60.242 44.252 59.75 44.464 59.382 44.888C59.006 45.312 58.79 45.856 58.734 46.52H63.006C62.886 45.008 62.17 44.252 60.858 44.252ZM67.5163 43.628C67.9003 43.628 68.2003 43.672 68.4163 43.76V44.492C68.1203 44.404 67.8043 44.36 67.4683 44.36C66.9003 44.36 66.4523 44.608 66.1243 45.104C65.7963 45.552 65.6323 46.092 65.6323 46.724V50H64.9123V43.796H65.6323V44.984C65.8003 44.592 66.0283 44.284 66.3163 44.06C66.6523 43.772 67.0523 43.628 67.5163 43.628ZM71.3485 43.628C72.8205 43.628 73.6445 44.264 73.8205 45.536H73.1125C73.0325 45.104 72.8605 44.788 72.5965 44.588C72.3165 44.364 71.8965 44.252 71.3365 44.252C70.8725 44.252 70.5005 44.344 70.2205 44.528C69.9325 44.72 69.7885 44.968 69.7885 45.272C69.7885 45.584 69.9725 45.836 70.3405 46.028C70.5885 46.148 71.0245 46.292 71.6485 46.46C72.4085 46.652 72.9445 46.844 73.2565 47.036C73.7525 47.34 74.0005 47.756 74.0005 48.284C74.0005 49.54 73.1605 50.168 71.4805 50.168C69.8885 50.168 69.0205 49.46 68.8765 48.044H69.5845C69.6565 48.588 69.8485 48.98 70.1605 49.22C70.4485 49.436 70.8805 49.544 71.4565 49.544C72.6565 49.544 73.2565 49.136 73.2565 48.32C73.2565 47.944 73.0525 47.656 72.6445 47.456C72.4205 47.344 71.9605 47.2 71.2645 47.024C70.5365 46.832 70.0325 46.648 69.7525 46.472C69.2805 46.192 69.0445 45.796 69.0445 45.284C69.0445 44.78 69.2685 44.376 69.7165 44.072C70.1405 43.776 70.6845 43.628 71.3485 43.628ZM77.8664 43.628C78.7784 43.628 79.5104 43.956 80.0624 44.612C80.5664 45.22 80.8184 45.984 80.8184 46.904C80.8184 47.808 80.5664 48.568 80.0624 49.184C79.5024 49.84 78.7704 50.168 77.8664 50.168C76.9624 50.168 76.2304 49.84 75.6704 49.184C75.1664 48.568 74.9144 47.808 74.9144 46.904C74.9144 45.984 75.1704 45.22 75.6824 44.612C76.2184 43.956 76.9464 43.628 77.8664 43.628ZM77.8664 44.252C77.1544 44.252 76.5984 44.524 76.1984 45.068C75.8304 45.54 75.6464 46.152 75.6464 46.904C75.6464 47.648 75.8304 48.256 76.1984 48.728C76.6064 49.272 77.1624 49.544 77.8664 49.544C78.5784 49.544 79.1384 49.272 79.5464 48.728C79.9144 48.224 80.0984 47.616 80.0984 46.904C80.0984 46.168 79.9144 45.556 79.5464 45.068C79.1464 44.524 78.5864 44.252 77.8664 44.252ZM84.8279 43.628C86.3639 43.628 87.1319 44.48 87.1319 46.184V50H86.4119V46.232C86.4119 44.912 85.8239 44.252 84.6479 44.252C84.1519 44.252 83.7359 44.432 83.3999 44.792C83.0479 45.144 82.8519 45.632 82.8119 46.256V50H82.0919V43.796H82.8119V44.816C83.0279 44.448 83.3079 44.156 83.6519 43.94C83.9879 43.732 84.3799 43.628 84.8279 43.628ZM91.2707 43.628C92.1427 43.628 92.7867 43.864 93.2027 44.336C93.5707 44.744 93.7547 45.3 93.7547 46.004V50H93.0707V48.812C92.8147 49.18 92.4787 49.488 92.0627 49.736C91.5747 50.024 91.0347 50.168 90.4427 50.168C89.8347 50.168 89.3427 50.012 88.9667 49.7C88.5907 49.38 88.4027 48.952 88.4027 48.416C88.4027 47.624 88.7267 47.048 89.3747 46.688C89.8947 46.392 90.5867 46.244 91.4507 46.244L93.0347 46.232V46.004C93.0347 44.828 92.4347 44.24 91.2347 44.24C90.6827 44.24 90.2507 44.356 89.9387 44.588C89.5867 44.82 89.3747 45.18 89.3027 45.668H88.5947C88.6907 44.972 88.9827 44.452 89.4707 44.108C89.9187 43.788 90.5187 43.628 91.2707 43.628ZM93.0347 46.82L91.4867 46.832C89.9187 46.84 89.1347 47.364 89.1347 48.404C89.1347 48.748 89.2667 49.028 89.5307 49.244C89.7867 49.46 90.1387 49.568 90.5867 49.568C91.2347 49.568 91.8107 49.352 92.3147 48.92C92.7947 48.496 93.0347 48.036 93.0347 47.54V46.82ZM95.4918 41.264H96.2118V50H95.4918V41.264ZM102.064 41.432H105.544C107.448 41.432 108.4 42.252 108.4 43.892C108.4 45.54 107.444 46.364 105.532 46.364H102.796V50H102.064V41.432ZM102.796 42.08V45.716H105.496C106.224 45.716 106.772 45.564 107.14 45.26C107.484 44.956 107.656 44.5 107.656 43.892C107.656 43.292 107.484 42.844 107.14 42.548C106.78 42.236 106.232 42.08 105.496 42.08H102.796ZM112.153 43.628C112.537 43.628 112.837 43.672 113.053 43.76V44.492C112.757 44.404 112.441 44.36 112.105 44.36C111.537 44.36 111.089 44.608 110.761 45.104C110.433 45.552 110.269 46.092 110.269 46.724V50H109.549V43.796H110.269V44.984C110.437 44.592 110.665 44.284 110.953 44.06C111.289 43.772 111.689 43.628 112.153 43.628ZM116.585 43.628C117.497 43.628 118.229 43.956 118.781 44.612C119.285 45.22 119.537 45.984 119.537 46.904C119.537 47.808 119.285 48.568 118.781 49.184C118.221 49.84 117.489 50.168 116.585 50.168C115.681 50.168 114.949 49.84 114.389 49.184C113.885 48.568 113.633 47.808 113.633 46.904C113.633 45.984 113.889 45.22 114.401 44.612C114.937 43.956 115.665 43.628 116.585 43.628ZM116.585 44.252C115.873 44.252 115.317 44.524 114.917 45.068C114.549 45.54 114.365 46.152 114.365 46.904C114.365 47.648 114.549 48.256 114.917 48.728C115.325 49.272 115.881 49.544 116.585 49.544C117.297 49.544 117.857 49.272 118.265 48.728C118.633 48.224 118.817 47.616 118.817 46.904C118.817 46.168 118.633 45.556 118.265 45.068C117.865 44.524 117.305 44.252 116.585 44.252ZM124.435 41.432V42.068H123.391C123.071 42.068 122.843 42.148 122.707 42.308C122.563 42.46 122.491 42.716 122.491 43.076V43.796H126.283V50H125.563V44.42H122.491V50H121.771V44.42H120.115V43.796H121.771V43.064C121.771 42.536 121.899 42.14 122.155 41.876C122.419 41.58 122.811 41.432 123.331 41.432H124.435ZM128.246 41.264H128.966V50H128.246V41.264ZM133.209 43.628C134.193 43.628 134.929 43.96 135.417 44.624C135.857 45.216 136.093 46.044 136.125 47.108H131.085C131.125 47.868 131.329 48.464 131.697 48.896C132.081 49.328 132.593 49.544 133.233 49.544C133.785 49.544 134.241 49.396 134.601 49.1C134.889 48.852 135.109 48.488 135.261 48.008H135.993C135.849 48.608 135.573 49.1 135.165 49.484C134.661 49.94 134.017 50.168 133.233 50.168C132.361 50.168 131.665 49.872 131.145 49.28C130.609 48.688 130.341 47.892 130.341 46.892C130.341 45.98 130.597 45.216 131.109 44.6C131.637 43.952 132.337 43.628 133.209 43.628ZM133.221 44.252C132.605 44.252 132.113 44.464 131.745 44.888C131.369 45.312 131.153 45.856 131.097 46.52H135.369C135.249 45.008 134.533 44.252 133.221 44.252ZM142.772 41.792V43.796H144.392V44.42H142.772V48.62C142.772 48.892 142.82 49.088 142.916 49.208C143.012 49.32 143.192 49.376 143.456 49.376H144.236V50H143.36C142.88 50 142.536 49.876 142.328 49.628C142.144 49.42 142.052 49.084 142.052 48.62V44.42H140.732V43.796H142.052V42.092L142.772 41.792ZM148.107 43.628C148.979 43.628 149.623 43.864 150.039 44.336C150.407 44.744 150.591 45.3 150.591 46.004V50H149.907V48.812C149.651 49.18 149.315 49.488 148.899 49.736C148.411 50.024 147.871 50.168 147.279 50.168C146.671 50.168 146.179 50.012 145.803 49.7C145.427 49.38 145.239 48.952 145.239 48.416C145.239 47.624 145.563 47.048 146.211 46.688C146.731 46.392 147.423 46.244 148.287 46.244L149.871 46.232V46.004C149.871 44.828 149.271 44.24 148.071 44.24C147.519 44.24 147.087 44.356 146.775 44.588C146.423 44.82 146.211 45.18 146.139 45.668H145.431C145.527 44.972 145.819 44.452 146.307 44.108C146.755 43.788 147.355 43.628 148.107 43.628ZM149.871 46.82L148.323 46.832C146.755 46.84 145.971 47.364 145.971 48.404C145.971 48.748 146.103 49.028 146.367 49.244C146.623 49.46 146.975 49.568 147.423 49.568C148.071 49.568 148.647 49.352 149.151 48.92C149.631 48.496 149.871 48.036 149.871 47.54V46.82ZM154.656 43.628C155.68 43.628 156.42 44.1 156.876 45.044V43.796H157.596V49.544C157.596 51.544 156.668 52.544 154.812 52.544C154.004 52.544 153.376 52.368 152.928 52.016C152.504 51.68 152.24 51.184 152.136 50.528H152.856C152.944 50.992 153.136 51.336 153.432 51.56C153.752 51.816 154.212 51.944 154.812 51.944C156.188 51.944 156.876 51.172 156.876 49.628V48.44C156.42 49.384 155.68 49.856 154.656 49.856C153.792 49.856 153.1 49.548 152.58 48.932C152.1 48.356 151.86 47.628 151.86 46.748C151.86 45.868 152.1 45.14 152.58 44.564C153.1 43.94 153.792 43.628 154.656 43.628ZM154.74 44.24C154.052 44.24 153.52 44.488 153.144 44.984C152.776 45.432 152.592 46.02 152.592 46.748C152.592 47.452 152.764 48.028 153.108 48.476C153.484 48.98 154.024 49.232 154.728 49.232C155.416 49.232 155.952 48.992 156.336 48.512C156.696 48.056 156.876 47.468 156.876 46.748C156.876 46.028 156.696 45.44 156.336 44.984C155.96 44.488 155.428 44.24 154.74 44.24Z" fill="#1C5DFF"/>
<rect x="183" y="36" width="128" height="20" rx="10" fill="#1C5DFF"/>
<rect x="183" y="36" width="128" height="20" rx="10" fill="white" fill-opacity="0.9"/>
<path d="M191.876 41.432H192.608V46.688C192.608 47.616 192.808 48.308 193.208 48.764C193.64 49.26 194.308 49.508 195.212 49.508C196.116 49.508 196.784 49.26 197.216 48.764C197.616 48.292 197.816 47.6 197.816 46.688V41.432H198.548V46.688C198.548 47.792 198.28 48.644 197.744 49.244C197.176 49.86 196.332 50.168 195.212 50.168C194.092 50.168 193.252 49.864 192.692 49.256C192.148 48.664 191.876 47.808 191.876 46.688V41.432ZM202.918 43.628C204.454 43.628 205.222 44.48 205.222 46.184V50H204.502V46.232C204.502 44.912 203.914 44.252 202.738 44.252C202.242 44.252 201.826 44.432 201.49 44.792C201.138 45.144 200.942 45.632 200.902 46.256V50H200.182V43.796H200.902V44.816C201.118 44.448 201.398 44.156 201.742 43.94C202.078 43.732 202.47 43.628 202.918 43.628ZM207.453 41.564C207.621 41.564 207.765 41.624 207.885 41.744C208.005 41.84 208.065 41.98 208.065 42.164C208.065 42.324 208.001 42.468 207.873 42.596C207.745 42.708 207.605 42.764 207.453 42.764C207.277 42.764 207.133 42.708 207.021 42.596C206.901 42.476 206.841 42.332 206.841 42.164C206.841 41.98 206.901 41.84 207.021 41.744C207.133 41.624 207.277 41.564 207.453 41.564ZM207.093 43.796H207.813V50H207.093V43.796ZM212.23 43.628C213.222 43.628 213.946 44.092 214.402 45.02V43.796H215.086V52.376H214.366V48.704C213.91 49.68 213.186 50.168 212.194 50.168C211.306 50.168 210.618 49.84 210.13 49.184C209.674 48.584 209.446 47.828 209.446 46.916C209.446 45.98 209.678 45.216 210.142 44.624C210.638 43.96 211.334 43.628 212.23 43.628ZM212.302 44.24C211.59 44.24 211.05 44.508 210.682 45.044C210.354 45.5 210.19 46.124 210.19 46.916C210.19 47.7 210.362 48.324 210.706 48.788C211.074 49.3 211.614 49.556 212.326 49.556C212.966 49.556 213.47 49.316 213.838 48.836C214.206 48.348 214.39 47.736 214.39 47V46.868C214.39 46.124 214.218 45.512 213.874 45.032C213.49 44.504 212.966 44.24 212.302 44.24ZM216.6 43.796H217.32V47.588C217.32 48.236 217.456 48.72 217.728 49.04C218.016 49.376 218.46 49.544 219.06 49.544C219.532 49.544 219.952 49.36 220.32 48.992C220.68 48.632 220.884 48.156 220.932 47.564V43.796H221.652V50H220.932V48.956C220.452 49.764 219.764 50.168 218.868 50.168C217.356 50.168 216.6 49.32 216.6 47.624V43.796ZM225.67 43.628C226.654 43.628 227.39 43.96 227.878 44.624C228.318 45.216 228.554 46.044 228.586 47.108H223.546C223.586 47.868 223.79 48.464 224.158 48.896C224.542 49.328 225.054 49.544 225.694 49.544C226.246 49.544 226.702 49.396 227.062 49.1C227.35 48.852 227.57 48.488 227.722 48.008H228.454C228.31 48.608 228.034 49.1 227.626 49.484C227.122 49.94 226.478 50.168 225.694 50.168C224.822 50.168 224.126 49.872 223.606 49.28C223.07 48.688 222.802 47.892 222.802 46.892C222.802 45.98 223.058 45.216 223.57 44.6C224.098 43.952 224.798 43.628 225.67 43.628ZM225.682 44.252C225.066 44.252 224.574 44.464 224.206 44.888C223.83 45.312 223.614 45.856 223.558 46.52H227.83C227.71 45.008 226.994 44.252 225.682 44.252ZM233.853 41.432H237.333C239.237 41.432 240.189 42.252 240.189 43.892C240.189 45.54 239.233 46.364 237.321 46.364H234.585V50H233.853V41.432ZM234.585 42.08V45.716H237.285C238.013 45.716 238.561 45.564 238.929 45.26C239.273 44.956 239.445 44.5 239.445 43.892C239.445 43.292 239.273 42.844 238.929 42.548C238.569 42.236 238.021 42.08 237.285 42.08H234.585ZM243.846 43.628C244.83 43.628 245.566 43.96 246.054 44.624C246.494 45.216 246.73 46.044 246.762 47.108H241.722C241.762 47.868 241.966 48.464 242.334 48.896C242.718 49.328 243.23 49.544 243.87 49.544C244.422 49.544 244.878 49.396 245.238 49.1C245.526 48.852 245.746 48.488 245.898 48.008H246.63C246.486 48.608 246.21 49.1 245.802 49.484C245.298 49.94 244.654 50.168 243.87 50.168C242.998 50.168 242.302 49.872 241.782 49.28C241.246 48.688 240.978 47.892 240.978 46.892C240.978 45.98 241.234 45.216 241.746 44.6C242.274 43.952 242.974 43.628 243.846 43.628ZM243.858 44.252C243.242 44.252 242.75 44.464 242.382 44.888C242.006 45.312 241.79 45.856 241.734 46.52H246.006C245.886 45.008 245.17 44.252 243.858 44.252ZM250.516 43.628C250.9 43.628 251.2 43.672 251.416 43.76V44.492C251.12 44.404 250.804 44.36 250.468 44.36C249.9 44.36 249.452 44.608 249.124 45.104C248.796 45.552 248.632 46.092 248.632 46.724V50H247.912V43.796H248.632V44.984C248.8 44.592 249.028 44.284 249.316 44.06C249.652 43.772 250.052 43.628 250.516 43.628ZM254.348 43.628C255.82 43.628 256.644 44.264 256.82 45.536H256.112C256.032 45.104 255.86 44.788 255.596 44.588C255.316 44.364 254.896 44.252 254.336 44.252C253.872 44.252 253.5 44.344 253.22 44.528C252.932 44.72 252.788 44.968 252.788 45.272C252.788 45.584 252.972 45.836 253.34 46.028C253.588 46.148 254.024 46.292 254.648 46.46C255.408 46.652 255.944 46.844 256.256 47.036C256.752 47.34 257 47.756 257 48.284C257 49.54 256.16 50.168 254.48 50.168C252.888 50.168 252.02 49.46 251.876 48.044H252.584C252.656 48.588 252.848 48.98 253.16 49.22C253.448 49.436 253.88 49.544 254.456 49.544C255.656 49.544 256.256 49.136 256.256 48.32C256.256 47.944 256.052 47.656 255.644 47.456C255.42 47.344 254.96 47.2 254.264 47.024C253.536 46.832 253.032 46.648 252.752 46.472C252.28 46.192 252.044 45.796 252.044 45.284C252.044 44.78 252.268 44.376 252.716 44.072C253.14 43.776 253.684 43.628 254.348 43.628ZM260.866 43.628C261.778 43.628 262.51 43.956 263.062 44.612C263.566 45.22 263.818 45.984 263.818 46.904C263.818 47.808 263.566 48.568 263.062 49.184C262.502 49.84 261.77 50.168 260.866 50.168C259.962 50.168 259.23 49.84 258.67 49.184C258.166 48.568 257.914 47.808 257.914 46.904C257.914 45.984 258.17 45.22 258.682 44.612C259.218 43.956 259.946 43.628 260.866 43.628ZM260.866 44.252C260.154 44.252 259.598 44.524 259.198 45.068C258.83 45.54 258.646 46.152 258.646 46.904C258.646 47.648 258.83 48.256 259.198 48.728C259.606 49.272 260.162 49.544 260.866 49.544C261.578 49.544 262.138 49.272 262.546 48.728C262.914 48.224 263.098 47.616 263.098 46.904C263.098 46.168 262.914 45.556 262.546 45.068C262.146 44.524 261.586 44.252 260.866 44.252ZM267.828 43.628C269.364 43.628 270.132 44.48 270.132 46.184V50H269.412V46.232C269.412 44.912 268.824 44.252 267.648 44.252C267.152 44.252 266.736 44.432 266.4 44.792C266.048 45.144 265.852 45.632 265.812 46.256V50H265.092V43.796H265.812V44.816C266.028 44.448 266.308 44.156 266.652 43.94C266.988 43.732 267.38 43.628 267.828 43.628ZM274.271 43.628C275.143 43.628 275.787 43.864 276.203 44.336C276.571 44.744 276.755 45.3 276.755 46.004V50H276.071V48.812C275.815 49.18 275.479 49.488 275.063 49.736C274.575 50.024 274.035 50.168 273.443 50.168C272.835 50.168 272.343 50.012 271.967 49.7C271.591 49.38 271.403 48.952 271.403 48.416C271.403 47.624 271.727 47.048 272.375 46.688C272.895 46.392 273.587 46.244 274.451 46.244L276.035 46.232V46.004C276.035 44.828 275.435 44.24 274.235 44.24C273.683 44.24 273.251 44.356 272.939 44.588C272.587 44.82 272.375 45.18 272.303 45.668H271.595C271.691 44.972 271.983 44.452 272.471 44.108C272.919 43.788 273.519 43.628 274.271 43.628ZM276.035 46.82L274.487 46.832C272.919 46.84 272.135 47.364 272.135 48.404C272.135 48.748 272.267 49.028 272.531 49.244C272.787 49.46 273.139 49.568 273.587 49.568C274.235 49.568 274.811 49.352 275.315 48.92C275.795 48.496 276.035 48.036 276.035 47.54V46.82ZM278.492 41.264H279.212V50H278.492V41.264ZM286.444 41.792V43.796H288.064V44.42H286.444V48.62C286.444 48.892 286.492 49.088 286.588 49.208C286.684 49.32 286.864 49.376 287.128 49.376H287.908V50H287.032C286.552 50 286.208 49.876 286 49.628C285.816 49.42 285.724 49.084 285.724 48.62V44.42H284.404V43.796H285.724V42.092L286.444 41.792ZM291.779 43.628C292.651 43.628 293.295 43.864 293.711 44.336C294.079 44.744 294.263 45.3 294.263 46.004V50H293.579V48.812C293.323 49.18 292.987 49.488 292.571 49.736C292.083 50.024 291.543 50.168 290.951 50.168C290.343 50.168 289.851 50.012 289.475 49.7C289.099 49.38 288.911 48.952 288.911 48.416C288.911 47.624 289.235 47.048 289.883 46.688C290.403 46.392 291.095 46.244 291.959 46.244L293.543 46.232V46.004C293.543 44.828 292.943 44.24 291.743 44.24C291.191 44.24 290.759 44.356 290.447 44.588C290.095 44.82 289.883 45.18 289.811 45.668H289.103C289.199 44.972 289.491 44.452 289.979 44.108C290.427 43.788 291.027 43.628 291.779 43.628ZM293.543 46.82L291.995 46.832C290.427 46.84 289.643 47.364 289.643 48.404C289.643 48.748 289.775 49.028 290.039 49.244C290.295 49.46 290.647 49.568 291.095 49.568C291.743 49.568 292.319 49.352 292.823 48.92C293.303 48.496 293.543 48.036 293.543 47.54V46.82ZM298.328 43.628C299.352 43.628 300.092 44.1 300.548 45.044V43.796H301.268V49.544C301.268 51.544 300.34 52.544 298.484 52.544C297.676 52.544 297.048 52.368 296.6 52.016C296.176 51.68 295.912 51.184 295.808 50.528H296.528C296.616 50.992 296.808 51.336 297.104 51.56C297.424 51.816 297.884 51.944 298.484 51.944C299.86 51.944 300.548 51.172 300.548 49.628V48.44C300.092 49.384 299.352 49.856 298.328 49.856C297.464 49.856 296.772 49.548 296.252 48.932C295.772 48.356 295.532 47.628 295.532 46.748C295.532 45.868 295.772 45.14 296.252 44.564C296.772 43.94 297.464 43.628 298.328 43.628ZM298.412 44.24C297.724 44.24 297.192 44.488 296.816 44.984C296.448 45.432 296.264 46.02 296.264 46.748C296.264 47.452 296.436 48.028 296.78 48.476C297.156 48.98 297.696 49.232 298.4 49.232C299.088 49.232 299.624 48.992 300.008 48.512C300.368 48.056 300.548 47.468 300.548 46.748C300.548 46.028 300.368 45.44 300.008 44.984C299.632 44.488 299.1 44.24 298.412 44.24Z" fill="#1C5DFF"/>
</svg>
