<svg width="447" height="38" viewBox="0 0 447 38" fill="none" xmlns="http://www.w3.org/2000/svg">
<path d="M0 19C0 8.50659 8.50659 0 19 0H131C141.493 0 150 8.50659 150 19C150 29.4934 141.493 38 131 38H19C8.50659 38 0 29.4934 0 19Z" fill="#1C5DFF"/>
<path d="M16.21 14.004H24.4V15.404H21.124V24H19.486V15.404H16.21V14.004ZM28.7433 16.566C29.8073 16.566 30.6053 16.832 31.1093 17.364C31.5573 17.826 31.7813 18.498 31.7813 19.38V24H30.2973V23.048C30.0173 23.412 29.6673 23.678 29.2613 23.874C28.7993 24.084 28.2533 24.196 27.6233 24.196C26.8673 24.196 26.2793 24 25.8453 23.622C25.3973 23.23 25.1733 22.74 25.1733 22.138C25.1733 21.326 25.4813 20.696 26.1253 20.262C26.7133 19.842 27.5393 19.618 28.6033 19.59L30.1853 19.548V19.268C30.1853 18.316 29.6673 17.854 28.6313 17.854C28.1833 17.854 27.8333 17.924 27.5673 18.092C27.2593 18.274 27.0493 18.554 26.9653 18.932L25.3833 18.806C25.5373 18.008 25.9293 17.42 26.5593 17.056C27.0913 16.72 27.8193 16.566 28.7433 16.566ZM30.1853 20.696L28.7153 20.738C27.4413 20.766 26.8113 21.214 26.8113 22.082C26.8113 22.334 26.9093 22.544 27.1333 22.712C27.3573 22.88 27.6373 22.978 27.9873 22.978C28.6033 22.978 29.1213 22.796 29.5413 22.446C29.9613 22.082 30.1853 21.62 30.1853 21.06V20.696ZM36.881 16.566C37.231 16.566 37.539 16.622 37.791 16.748V18.344C37.427 18.232 37.091 18.19 36.755 18.19C36.335 18.19 35.957 18.344 35.621 18.68C35.229 19.058 35.047 19.548 35.047 20.164V24H33.465V16.762H35.047V17.798C35.243 17.434 35.467 17.154 35.733 16.958C36.055 16.692 36.433 16.566 36.881 16.566ZM41.7113 16.566C42.6073 16.566 43.3213 16.916 43.8533 17.644V16.762H45.4493V23.538C45.4493 25.82 44.3153 26.968 42.0473 26.968C41.0253 26.968 40.2553 26.772 39.7233 26.408C39.1913 26.016 38.8553 25.428 38.7153 24.616H40.3113C40.3953 25.022 40.5633 25.302 40.8293 25.47C41.0813 25.624 41.4873 25.708 42.0473 25.708C43.2513 25.708 43.8533 25.064 43.8533 23.776V22.712C43.3213 23.454 42.6073 23.832 41.7113 23.832C40.7313 23.832 39.9333 23.496 39.3313 22.852C38.7153 22.194 38.4213 21.312 38.4213 20.22C38.4213 19.128 38.7153 18.246 39.3313 17.574C39.9333 16.902 40.7313 16.566 41.7113 16.566ZM41.9633 17.854C41.3613 17.854 40.8993 18.064 40.5633 18.484C40.2273 18.89 40.0593 19.464 40.0593 20.22C40.0593 20.906 40.1853 21.438 40.4513 21.83C40.7593 22.292 41.2493 22.53 41.9493 22.53C42.5653 22.53 43.0413 22.32 43.3773 21.928C43.6993 21.508 43.8673 20.948 43.8673 20.22C43.8673 19.478 43.6993 18.904 43.3773 18.484C43.0413 18.064 42.5653 17.854 41.9633 17.854ZM50.2032 16.566C51.3932 16.566 52.3032 16.958 52.9332 17.77C53.5072 18.498 53.8012 19.52 53.8012 20.822H48.3832C48.4392 21.494 48.6212 22.012 48.9292 22.362C49.2372 22.712 49.6852 22.894 50.2592 22.894C50.7492 22.894 51.1412 22.782 51.4492 22.558C51.6872 22.376 51.8972 22.082 52.0932 21.676H53.6892C53.5212 22.348 53.1852 22.922 52.6812 23.37C52.0372 23.916 51.2392 24.196 50.2732 24.196C49.1952 24.196 48.3412 23.86 47.7112 23.202C47.0392 22.516 46.7032 21.578 46.7032 20.374C46.7032 19.296 47.0112 18.4 47.6552 17.672C48.2712 16.93 49.1252 16.566 50.2032 16.566ZM50.2452 17.868C49.7132 17.868 49.3072 18.008 48.9992 18.316C48.7052 18.61 48.5092 19.044 48.4112 19.618H52.1352C51.9952 18.442 51.3652 17.868 50.2452 17.868ZM57.3346 14.424V16.762H58.9446V18.078H57.3346V22.166C57.3346 22.334 57.3626 22.46 57.4466 22.558C57.5306 22.642 57.6426 22.684 57.8106 22.684H58.7626V24H57.5446C56.9146 24 56.4526 23.832 56.1586 23.496C55.8786 23.188 55.7386 22.754 55.7386 22.166V18.078H54.4366V16.762H55.7386V15.082L57.3346 14.424ZM68.4689 13.808C69.6449 13.808 70.5689 14.046 71.2269 14.536C71.9269 15.054 72.3329 15.866 72.4309 16.958H70.8069C70.6669 16.342 70.4009 15.894 70.0369 15.628C69.6729 15.348 69.1129 15.222 68.3849 15.222C67.7549 15.222 67.2789 15.306 66.9429 15.488C66.5229 15.698 66.3269 16.048 66.3269 16.524C66.3269 16.944 66.5509 17.294 67.0269 17.546C67.2369 17.658 67.8109 17.868 68.7349 18.162C70.0929 18.582 70.9609 18.918 71.3529 19.142C72.2209 19.66 72.6549 20.374 72.6549 21.298C72.6549 22.194 72.3049 22.908 71.6049 23.426C70.9049 23.93 69.9109 24.196 68.6369 24.196C67.4049 24.196 66.4389 23.958 65.7529 23.482C64.9129 22.894 64.4509 21.97 64.3809 20.696H66.0049C66.1169 21.452 66.3829 21.998 66.8169 22.32C67.2089 22.6 67.8109 22.754 68.6369 22.754C69.3649 22.754 69.9529 22.628 70.3729 22.39C70.7929 22.138 71.0169 21.816 71.0169 21.396C71.0169 20.864 70.6949 20.444 70.0789 20.136C69.8829 20.038 69.2389 19.814 68.1329 19.478C66.9009 19.086 66.1309 18.806 65.8369 18.638C65.0669 18.176 64.6889 17.504 64.6889 16.622C64.6889 15.74 65.0529 15.04 65.8089 14.536C66.5089 14.046 67.3909 13.808 68.4689 13.808ZM77.1681 16.566C78.1061 16.566 78.8481 16.776 79.4081 17.196C79.9821 17.644 80.3461 18.316 80.4861 19.226H78.9041C78.8061 18.764 78.6101 18.428 78.3301 18.204C78.0361 17.98 77.6441 17.868 77.1681 17.868C76.5801 17.868 76.1181 18.078 75.7821 18.526C75.4461 18.96 75.2781 19.576 75.2781 20.36C75.2781 21.158 75.4321 21.788 75.7681 22.236C76.0761 22.67 76.5381 22.894 77.1541 22.894C78.2181 22.894 78.8061 22.362 78.9321 21.312H80.5141C80.3461 22.292 79.9681 23.02 79.3941 23.496C78.8341 23.958 78.0781 24.196 77.1401 24.196C76.0201 24.196 75.1521 23.832 74.5361 23.104C73.9341 22.404 73.6401 21.494 73.6401 20.374C73.6401 19.282 73.9341 18.386 74.5221 17.7C75.1521 16.944 76.0341 16.566 77.1681 16.566ZM81.7677 13.808H83.3637V17.728C83.6297 17.322 83.9657 17.028 84.3577 16.832C84.7077 16.65 85.1137 16.566 85.5757 16.566C86.4577 16.566 87.1157 16.818 87.5497 17.336C87.9557 17.826 88.1657 18.554 88.1657 19.52V24H86.5697V19.8C86.5697 19.184 86.4437 18.708 86.2057 18.386C85.9257 18.036 85.5197 17.868 84.9737 17.868C84.4697 17.868 84.0777 18.064 83.7977 18.456C83.5037 18.848 83.3637 19.338 83.3637 19.954V24H81.7677V13.808ZM93.2078 16.566C94.2998 16.566 95.1818 16.916 95.8538 17.644C96.5118 18.358 96.8478 19.268 96.8478 20.388C96.8478 21.494 96.5118 22.404 95.8678 23.104C95.1958 23.832 94.2998 24.196 93.2078 24.196C92.1018 24.196 91.2198 23.832 90.5478 23.104C89.8898 22.404 89.5678 21.494 89.5678 20.388C89.5678 19.268 89.8898 18.358 90.5618 17.644C91.2198 16.916 92.1018 16.566 93.2078 16.566ZM93.2078 17.868C92.5358 17.868 92.0318 18.12 91.6678 18.652C91.3598 19.1 91.2058 19.688 91.2058 20.388C91.2058 21.088 91.3598 21.662 91.6678 22.11C92.0318 22.628 92.5358 22.894 93.2078 22.894C93.8658 22.894 94.3838 22.628 94.7478 22.11C95.0558 21.648 95.2238 21.074 95.2238 20.388C95.2238 19.688 95.0558 19.1 94.7478 18.652C94.3838 18.12 93.8658 17.868 93.2078 17.868ZM101.602 16.566C102.694 16.566 103.576 16.916 104.248 17.644C104.906 18.358 105.242 19.268 105.242 20.388C105.242 21.494 104.906 22.404 104.262 23.104C103.59 23.832 102.694 24.196 101.602 24.196C100.496 24.196 99.6143 23.832 98.9423 23.104C98.2843 22.404 97.9623 21.494 97.9623 20.388C97.9623 19.268 98.2843 18.358 98.9563 17.644C99.6143 16.916 100.496 16.566 101.602 16.566ZM101.602 17.868C100.93 17.868 100.426 18.12 100.062 18.652C99.7543 19.1 99.6003 19.688 99.6003 20.388C99.6003 21.088 99.7543 21.662 100.062 22.11C100.426 22.628 100.93 22.894 101.602 22.894C102.26 22.894 102.778 22.628 103.142 22.11C103.45 21.648 103.618 21.074 103.618 20.388C103.618 19.688 103.45 19.1 103.142 18.652C102.778 18.12 102.26 17.868 101.602 17.868ZM106.777 13.808H108.373V24H106.777V13.808ZM112.922 16.566C114.826 16.566 115.876 17.322 116.044 18.862H114.49C114.378 18.498 114.21 18.232 113.986 18.092C113.748 17.938 113.384 17.868 112.894 17.868C112.474 17.868 112.152 17.924 111.942 18.05C111.69 18.176 111.578 18.372 111.578 18.652C111.578 18.876 111.76 19.086 112.152 19.254C112.39 19.352 112.866 19.492 113.594 19.674C114.406 19.87 115.022 20.094 115.414 20.36C115.988 20.724 116.282 21.242 116.282 21.886C116.282 23.426 115.19 24.196 113.02 24.196C111.004 24.196 109.926 23.342 109.772 21.648H111.326C111.41 22.11 111.578 22.432 111.816 22.628C112.054 22.796 112.432 22.894 112.964 22.894C114.084 22.894 114.644 22.586 114.644 21.998C114.644 21.662 114.434 21.396 114.014 21.2C113.79 21.088 113.314 20.962 112.586 20.794C111.732 20.598 111.13 20.388 110.78 20.164C110.22 19.814 109.94 19.324 109.94 18.694C109.94 18.022 110.206 17.504 110.766 17.14C111.312 16.748 112.026 16.566 112.922 16.566ZM118.625 16.706C118.933 16.706 119.185 16.804 119.409 17.028C119.619 17.238 119.731 17.504 119.731 17.812C119.731 18.12 119.619 18.372 119.409 18.596C119.185 18.792 118.933 18.904 118.625 18.904C118.317 18.904 118.051 18.792 117.855 18.596C117.631 18.372 117.533 18.12 117.533 17.812C117.533 17.504 117.631 17.238 117.855 17.028C118.051 16.804 118.317 16.706 118.625 16.706ZM118.625 21.83C118.933 21.83 119.185 21.928 119.409 22.152C119.619 22.362 119.731 22.628 119.731 22.936C119.731 23.244 119.619 23.496 119.409 23.72C119.185 23.916 118.933 24.028 118.625 24.028C118.317 24.028 118.051 23.916 117.855 23.72C117.631 23.496 117.533 23.244 117.533 22.936C117.533 22.628 117.631 22.362 117.855 22.152C118.051 21.928 118.317 21.83 118.625 21.83ZM129.523 13.808C130.531 13.808 131.357 14.046 131.973 14.536C132.575 15.026 132.883 15.698 132.883 16.566C132.883 17.658 132.323 18.386 131.217 18.75C131.805 18.932 132.267 19.198 132.575 19.562C132.911 19.94 133.079 20.43 133.079 21.018C133.079 21.942 132.757 22.698 132.113 23.286C131.441 23.888 130.559 24.196 129.467 24.196C128.431 24.196 127.591 23.93 126.961 23.398C126.261 22.81 125.869 21.942 125.785 20.822H127.451C127.479 21.466 127.675 21.97 128.067 22.32C128.417 22.642 128.879 22.81 129.453 22.81C130.083 22.81 130.587 22.628 130.951 22.278C131.273 21.956 131.441 21.564 131.441 21.088C131.441 20.514 131.259 20.094 130.923 19.828C130.587 19.548 130.097 19.422 129.453 19.422H128.753V18.19H129.453C130.041 18.19 130.489 18.064 130.797 17.812C131.091 17.56 131.245 17.182 131.245 16.692C131.245 16.202 131.105 15.838 130.839 15.586C130.545 15.334 130.111 15.208 129.537 15.208C128.949 15.208 128.501 15.348 128.179 15.642C127.843 15.936 127.647 16.384 127.591 16.986H125.981C126.065 15.978 126.429 15.194 127.101 14.634C127.731 14.074 128.543 13.808 129.523 13.808Z" fill="white"/>
<path d="M166 19C166 8.50659 174.507 0 185 0H267C277.493 0 286 8.50659 286 19C286 29.4934 277.493 38 267 38H185C174.507 38 166 29.4934 166 19Z" fill="#1C5DFF"/>
<path d="M166 19C166 8.50659 174.507 0 185 0H267C277.493 0 286 8.50659 286 19C286 29.4934 277.493 38 267 38H185C174.507 38 166 29.4934 166 19Z" fill="white" fill-opacity="0.9"/>
<path d="M183.022 14.004H189.644V14.76H183.876V18.47H189.35V19.226H183.876V24H183.022V14.004ZM191.761 14.158C191.957 14.158 192.125 14.228 192.265 14.368C192.405 14.48 192.475 14.6433 192.475 14.858C192.475 15.0447 192.4 15.2127 192.251 15.362C192.102 15.4927 191.938 15.558 191.761 15.558C191.556 15.558 191.388 15.4927 191.257 15.362C191.117 15.222 191.047 15.054 191.047 14.858C191.047 14.6433 191.117 14.48 191.257 14.368C191.388 14.228 191.556 14.158 191.761 14.158ZM191.341 16.762H192.181V24H191.341V16.762ZM196.116 14.424V16.762H198.006V17.49H196.116V22.39C196.116 22.7073 196.172 22.936 196.284 23.076C196.396 23.2067 196.606 23.272 196.914 23.272H197.824V24H196.802C196.242 24 195.841 23.8553 195.598 23.566C195.384 23.3233 195.276 22.9313 195.276 22.39V17.49H193.736V16.762H195.276V14.774L196.116 14.424ZM207.339 13.808C208.431 13.808 209.299 14.074 209.943 14.606C210.605 15.138 210.979 15.922 211.063 16.958H210.209C210.097 16.1833 209.803 15.5907 209.327 15.18C208.86 14.7787 208.188 14.578 207.311 14.578C206.508 14.578 205.873 14.718 205.407 14.998C204.884 15.2967 204.623 15.768 204.623 16.412C204.623 16.9627 204.935 17.406 205.561 17.742C205.897 17.9007 206.536 18.1153 207.479 18.386C208.776 18.7593 209.635 19.0767 210.055 19.338C210.885 19.8327 211.301 20.5327 211.301 21.438C211.301 22.2967 210.941 22.978 210.223 23.482C209.541 23.958 208.631 24.196 207.493 24.196C206.345 24.196 205.439 23.9347 204.777 23.412C204.021 22.8147 203.601 21.9093 203.517 20.696H204.357C204.459 21.6387 204.786 22.3387 205.337 22.796C205.85 23.2067 206.564 23.412 207.479 23.412C208.347 23.412 209.061 23.2393 209.621 22.894C210.162 22.5393 210.433 22.068 210.433 21.48C210.433 20.7987 210.092 20.2667 209.411 19.884C209.037 19.6693 208.305 19.4127 207.213 19.114C206.018 18.778 205.253 18.512 204.917 18.316C204.151 17.8867 203.769 17.2613 203.769 16.44C203.769 15.572 204.128 14.9093 204.847 14.452C205.481 14.0227 206.312 13.808 207.339 13.808ZM215.698 16.566C216.566 16.566 217.27 16.776 217.812 17.196C218.362 17.616 218.694 18.26 218.806 19.128H217.966C217.872 18.5213 217.63 18.064 217.238 17.756C216.846 17.448 216.332 17.294 215.698 17.294C214.932 17.294 214.326 17.588 213.878 18.176C213.439 18.7267 213.22 19.478 213.22 20.43C213.22 21.354 213.43 22.0913 213.85 22.642C214.27 23.1927 214.881 23.468 215.684 23.468C217.028 23.468 217.802 22.782 218.008 21.41H218.834C218.694 22.3247 218.348 23.02 217.798 23.496C217.256 23.9627 216.552 24.196 215.684 24.196C214.61 24.196 213.78 23.832 213.192 23.104C212.641 22.4413 212.366 21.55 212.366 20.43C212.366 19.3287 212.65 18.4233 213.22 17.714C213.817 16.9487 214.643 16.566 215.698 16.566ZM220.179 13.808H221.033V18.078C221.285 17.5833 221.621 17.2053 222.041 16.944C222.452 16.692 222.909 16.566 223.413 16.566C224.244 16.566 224.888 16.8087 225.345 17.294C225.812 17.7887 226.045 18.484 226.045 19.38V24H225.205V19.492C225.205 18.8013 225.028 18.2553 224.673 17.854C224.309 17.4807 223.81 17.294 223.175 17.294C222.578 17.294 222.069 17.5367 221.649 18.022C221.238 18.4887 221.033 19.086 221.033 19.814V24H220.179V13.808ZM230.972 16.566C232.036 16.566 232.89 16.9487 233.534 17.714C234.122 18.4233 234.416 19.3147 234.416 20.388C234.416 21.4427 234.122 22.3293 233.534 23.048C232.88 23.8133 232.026 24.196 230.972 24.196C229.917 24.196 229.063 23.8133 228.41 23.048C227.822 22.3293 227.528 21.4427 227.528 20.388C227.528 19.3147 227.826 18.4233 228.424 17.714C229.049 16.9487 229.898 16.566 230.972 16.566ZM230.972 17.294C230.141 17.294 229.492 17.6113 229.026 18.246C228.596 18.7967 228.382 19.5107 228.382 20.388C228.382 21.256 228.596 21.9653 229.026 22.516C229.502 23.1507 230.15 23.468 230.972 23.468C231.802 23.468 232.456 23.1507 232.932 22.516C233.361 21.928 233.576 21.2187 233.576 20.388C233.576 19.5293 233.361 18.8153 232.932 18.246C232.465 17.6113 231.812 17.294 230.972 17.294ZM239.066 16.566C240.13 16.566 240.984 16.9487 241.628 17.714C242.216 18.4233 242.51 19.3147 242.51 20.388C242.51 21.4427 242.216 22.3293 241.628 23.048C240.974 23.8133 240.12 24.196 239.066 24.196C238.011 24.196 237.157 23.8133 236.504 23.048C235.916 22.3293 235.622 21.4427 235.622 20.388C235.622 19.3147 235.92 18.4233 236.518 17.714C237.143 16.9487 237.992 16.566 239.066 16.566ZM239.066 17.294C238.235 17.294 237.586 17.6113 237.12 18.246C236.69 18.7967 236.476 19.5107 236.476 20.388C236.476 21.256 236.69 21.9653 237.12 22.516C237.596 23.1507 238.244 23.468 239.066 23.468C239.896 23.468 240.55 23.1507 241.026 22.516C241.455 21.928 241.67 21.2187 241.67 20.388C241.67 19.5293 241.455 18.8153 241.026 18.246C240.559 17.6113 239.906 17.294 239.066 17.294ZM244.261 13.808H245.101V24H244.261V13.808ZM249.59 16.566C251.307 16.566 252.269 17.308 252.474 18.792H251.648C251.555 18.288 251.354 17.9193 251.046 17.686C250.719 17.4247 250.229 17.294 249.576 17.294C249.035 17.294 248.601 17.4013 248.274 17.616C247.938 17.84 247.77 18.1293 247.77 18.484C247.77 18.848 247.985 19.142 248.414 19.366C248.703 19.506 249.212 19.674 249.94 19.87C250.827 20.094 251.452 20.318 251.816 20.542C252.395 20.8967 252.684 21.382 252.684 21.998C252.684 23.4633 251.704 24.196 249.744 24.196C247.887 24.196 246.874 23.37 246.706 21.718H247.532C247.616 22.3527 247.84 22.81 248.204 23.09C248.54 23.342 249.044 23.468 249.716 23.468C251.116 23.468 251.816 22.992 251.816 22.04C251.816 21.6013 251.578 21.2653 251.102 21.032C250.841 20.9013 250.304 20.7333 249.492 20.528C248.643 20.304 248.055 20.0893 247.728 19.884C247.177 19.5573 246.902 19.0953 246.902 18.498C246.902 17.91 247.163 17.4387 247.686 17.084C248.181 16.7387 248.815 16.566 249.59 16.566ZM254.954 17.476C255.16 17.476 255.328 17.5413 255.458 17.672C255.598 17.7933 255.668 17.9613 255.668 18.176C255.668 18.3627 255.594 18.5307 255.444 18.68C255.295 18.8107 255.132 18.876 254.954 18.876C254.749 18.876 254.581 18.806 254.45 18.666C254.31 18.526 254.24 18.3627 254.24 18.176C254.24 17.9613 254.31 17.7933 254.45 17.672C254.572 17.5413 254.74 17.476 254.954 17.476ZM254.954 22.6C255.16 22.6 255.328 22.6653 255.458 22.796C255.598 22.9173 255.668 23.0853 255.668 23.3C255.668 23.4867 255.594 23.6547 255.444 23.804C255.295 23.9347 255.132 24 254.954 24C254.749 24 254.581 23.93 254.45 23.79C254.31 23.65 254.24 23.4867 254.24 23.3C254.24 23.0853 254.31 22.9173 254.45 22.796C254.572 22.6653 254.74 22.6 254.954 22.6ZM266.936 14.004H267.762V20.948H269.456V21.662H267.762V24H266.936V21.662H261.784V20.836L266.936 14.004ZM266.894 15.166L262.554 20.948H266.936V15.166H266.894Z" fill="black"/>
<path d="M302 19C302 8.50659 310.507 0 321 0H428C438.493 0 447 8.50659 447 19C447 29.4934 438.493 38 428 38H321C310.507 38 302 29.4934 302 19Z" fill="#1C5DFF"/>
<path d="M302 19C302 8.50659 310.507 0 321 0H428C438.493 0 447 8.50659 447 19C447 29.4934 438.493 38 428 38H321C310.507 38 302 29.4934 302 19Z" fill="white" fill-opacity="0.9"/>
<path d="M322.284 13.808C323.376 13.808 324.244 14.074 324.888 14.606C325.551 15.138 325.924 15.922 326.008 16.958H325.154C325.042 16.1833 324.748 15.5907 324.272 15.18C323.805 14.7787 323.133 14.578 322.256 14.578C321.453 14.578 320.819 14.718 320.352 14.998C319.829 15.2967 319.568 15.768 319.568 16.412C319.568 16.9627 319.881 17.406 320.506 17.742C320.842 17.9007 321.481 18.1153 322.424 18.386C323.721 18.7593 324.58 19.0767 325 19.338C325.831 19.8327 326.246 20.5327 326.246 21.438C326.246 22.2967 325.887 22.978 325.168 23.482C324.487 23.958 323.577 24.196 322.438 24.196C321.29 24.196 320.385 23.9347 319.722 23.412C318.966 22.8147 318.546 21.9093 318.462 20.696H319.302C319.405 21.6387 319.731 22.3387 320.282 22.796C320.795 23.2067 321.509 23.412 322.424 23.412C323.292 23.412 324.006 23.2393 324.566 22.894C325.107 22.5393 325.378 22.068 325.378 21.48C325.378 20.7987 325.037 20.2667 324.356 19.884C323.983 19.6693 323.25 19.4127 322.158 19.114C320.963 18.778 320.198 18.512 319.862 18.316C319.097 17.8867 318.714 17.2613 318.714 16.44C318.714 15.572 319.073 14.9093 319.792 14.452C320.427 14.0227 321.257 13.808 322.284 13.808ZM330.657 16.566C331.674 16.566 332.426 16.8413 332.911 17.392C333.34 17.868 333.555 18.5167 333.555 19.338V24H332.757V22.614C332.458 23.0433 332.066 23.4027 331.581 23.692C331.012 24.028 330.382 24.196 329.691 24.196C328.982 24.196 328.408 24.014 327.969 23.65C327.53 23.2767 327.311 22.7773 327.311 22.152C327.311 21.228 327.689 20.556 328.445 20.136C329.052 19.7907 329.859 19.618 330.867 19.618L332.715 19.604V19.338C332.715 17.966 332.015 17.28 330.615 17.28C329.971 17.28 329.467 17.4153 329.103 17.686C328.692 17.9567 328.445 18.3767 328.361 18.946H327.535C327.647 18.134 327.988 17.5273 328.557 17.126C329.08 16.7527 329.78 16.566 330.657 16.566ZM332.715 20.29L330.909 20.304C329.08 20.3133 328.165 20.9247 328.165 22.138C328.165 22.5393 328.319 22.866 328.627 23.118C328.926 23.37 329.336 23.496 329.859 23.496C330.615 23.496 331.287 23.244 331.875 22.74C332.435 22.2453 332.715 21.7087 332.715 21.13V20.29ZM339.544 14.004V14.746H338.326C337.952 14.746 337.686 14.8393 337.528 15.026C337.36 15.2033 337.276 15.502 337.276 15.922V16.762H339.446V17.49H337.276V24H336.436V17.49H334.504V16.762H336.436V15.908C336.436 15.292 336.585 14.83 336.884 14.522C337.192 14.1767 337.649 14.004 338.256 14.004H339.544ZM343.423 16.566C344.571 16.566 345.43 16.9533 345.999 17.728C346.513 18.4187 346.788 19.3847 346.825 20.626H340.945C340.992 21.5127 341.23 22.208 341.659 22.712C342.107 23.216 342.705 23.468 343.451 23.468C344.095 23.468 344.627 23.2953 345.047 22.95C345.383 22.6607 345.64 22.236 345.817 21.676H346.671C346.503 22.376 346.181 22.95 345.705 23.398C345.117 23.93 344.366 24.196 343.451 24.196C342.434 24.196 341.622 23.8507 341.015 23.16C340.39 22.4693 340.077 21.5407 340.077 20.374C340.077 19.31 340.376 18.4187 340.973 17.7C341.589 16.944 342.406 16.566 343.423 16.566ZM343.437 17.294C342.719 17.294 342.145 17.5413 341.715 18.036C341.277 18.5307 341.025 19.1653 340.959 19.94H345.943C345.803 18.176 344.968 17.294 343.437 17.294ZM349.917 14.424V16.762H351.807V17.49H349.917V22.39C349.917 22.7073 349.973 22.936 350.085 23.076C350.197 23.2067 350.407 23.272 350.715 23.272H351.625V24H350.603C350.043 24 349.642 23.8553 349.399 23.566C349.184 23.3233 349.077 22.9313 349.077 22.39V17.49H347.537V16.762H349.077V14.774L349.917 14.424ZM352.263 16.762H353.187L355.553 22.796L357.891 16.762H358.815L354.825 26.772H353.915L355.133 23.818L352.263 16.762ZM367.825 13.808C368.917 13.808 369.785 14.074 370.429 14.606C371.092 15.138 371.465 15.922 371.549 16.958H370.695C370.583 16.1833 370.289 15.5907 369.813 15.18C369.346 14.7787 368.674 14.578 367.797 14.578C366.994 14.578 366.36 14.718 365.893 14.998C365.37 15.2967 365.109 15.768 365.109 16.412C365.109 16.9627 365.422 17.406 366.047 17.742C366.383 17.9007 367.022 18.1153 367.965 18.386C369.262 18.7593 370.121 19.0767 370.541 19.338C371.372 19.8327 371.787 20.5327 371.787 21.438C371.787 22.2967 371.428 22.978 370.709 23.482C370.028 23.958 369.118 24.196 367.979 24.196C366.831 24.196 365.926 23.9347 365.263 23.412C364.507 22.8147 364.087 21.9093 364.003 20.696H364.843C364.946 21.6387 365.272 22.3387 365.823 22.796C366.336 23.2067 367.05 23.412 367.965 23.412C368.833 23.412 369.547 23.2393 370.107 22.894C370.648 22.5393 370.919 22.068 370.919 21.48C370.919 20.7987 370.578 20.2667 369.897 19.884C369.524 19.6693 368.791 19.4127 367.699 19.114C366.504 18.778 365.739 18.512 365.403 18.316C364.638 17.8867 364.255 17.2613 364.255 16.44C364.255 15.572 364.614 14.9093 365.333 14.452C365.968 14.0227 366.798 13.808 367.825 13.808ZM376.184 16.566C377.052 16.566 377.757 16.776 378.298 17.196C378.849 17.616 379.18 18.26 379.292 19.128H378.452C378.359 18.5213 378.116 18.064 377.724 17.756C377.332 17.448 376.819 17.294 376.184 17.294C375.419 17.294 374.812 17.588 374.364 18.176C373.925 18.7267 373.706 19.478 373.706 20.43C373.706 21.354 373.916 22.0913 374.336 22.642C374.756 23.1927 375.367 23.468 376.17 23.468C377.514 23.468 378.289 22.782 378.494 21.41H379.32C379.18 22.3247 378.835 23.02 378.284 23.496C377.743 23.9627 377.038 24.196 376.17 24.196C375.097 24.196 374.266 23.832 373.678 23.104C373.127 22.4413 372.852 21.55 372.852 20.43C372.852 19.3287 373.137 18.4233 373.706 17.714C374.303 16.9487 375.129 16.566 376.184 16.566ZM380.665 13.808H381.519V18.078C381.771 17.5833 382.107 17.2053 382.527 16.944C382.938 16.692 383.395 16.566 383.899 16.566C384.73 16.566 385.374 16.8087 385.831 17.294C386.298 17.7887 386.531 18.484 386.531 19.38V24H385.691V19.492C385.691 18.8013 385.514 18.2553 385.159 17.854C384.795 17.4807 384.296 17.294 383.661 17.294C383.064 17.294 382.555 17.5367 382.135 18.022C381.725 18.4887 381.519 19.086 381.519 19.814V24H380.665V13.808ZM391.458 16.566C392.522 16.566 393.376 16.9487 394.02 17.714C394.608 18.4233 394.902 19.3147 394.902 20.388C394.902 21.4427 394.608 22.3293 394.02 23.048C393.367 23.8133 392.513 24.196 391.458 24.196C390.403 24.196 389.549 23.8133 388.896 23.048C388.308 22.3293 388.014 21.4427 388.014 20.388C388.014 19.3147 388.313 18.4233 388.91 17.714C389.535 16.9487 390.385 16.566 391.458 16.566ZM391.458 17.294C390.627 17.294 389.979 17.6113 389.512 18.246C389.083 18.7967 388.868 19.5107 388.868 20.388C388.868 21.256 389.083 21.9653 389.512 22.516C389.988 23.1507 390.637 23.468 391.458 23.468C392.289 23.468 392.942 23.1507 393.418 22.516C393.847 21.928 394.062 21.2187 394.062 20.388C394.062 19.5293 393.847 18.8153 393.418 18.246C392.951 17.6113 392.298 17.294 391.458 17.294ZM399.552 16.566C400.616 16.566 401.47 16.9487 402.114 17.714C402.702 18.4233 402.996 19.3147 402.996 20.388C402.996 21.4427 402.702 22.3293 402.114 23.048C401.461 23.8133 400.607 24.196 399.552 24.196C398.497 24.196 397.643 23.8133 396.99 23.048C396.402 22.3293 396.108 21.4427 396.108 20.388C396.108 19.3147 396.407 18.4233 397.004 17.714C397.629 16.9487 398.479 16.566 399.552 16.566ZM399.552 17.294C398.721 17.294 398.073 17.6113 397.606 18.246C397.177 18.7967 396.962 19.5107 396.962 20.388C396.962 21.256 397.177 21.9653 397.606 22.516C398.082 23.1507 398.731 23.468 399.552 23.468C400.383 23.468 401.036 23.1507 401.512 22.516C401.941 21.928 402.156 21.2187 402.156 20.388C402.156 19.5293 401.941 18.8153 401.512 18.246C401.045 17.6113 400.392 17.294 399.552 17.294ZM404.748 13.808H405.588V24H404.748V13.808ZM410.076 16.566C411.794 16.566 412.755 17.308 412.96 18.792H412.134C412.041 18.288 411.84 17.9193 411.532 17.686C411.206 17.4247 410.716 17.294 410.062 17.294C409.521 17.294 409.087 17.4013 408.76 17.616C408.424 17.84 408.256 18.1293 408.256 18.484C408.256 18.848 408.471 19.142 408.9 19.366C409.19 19.506 409.698 19.674 410.426 19.87C411.313 20.094 411.938 20.318 412.302 20.542C412.881 20.8967 413.17 21.382 413.17 21.998C413.17 23.4633 412.19 24.196 410.23 24.196C408.373 24.196 407.36 23.37 407.192 21.718H408.018C408.102 22.3527 408.326 22.81 408.69 23.09C409.026 23.342 409.53 23.468 410.202 23.468C411.602 23.468 412.302 22.992 412.302 22.04C412.302 21.6013 412.064 21.2653 411.588 21.032C411.327 20.9013 410.79 20.7333 409.978 20.528C409.129 20.304 408.541 20.0893 408.214 19.884C407.664 19.5573 407.388 19.0953 407.388 18.498C407.388 17.91 407.65 17.4387 408.172 17.084C408.667 16.7387 409.302 16.566 410.076 16.566ZM415.441 17.476C415.646 17.476 415.814 17.5413 415.945 17.672C416.085 17.7933 416.155 17.9613 416.155 18.176C416.155 18.3627 416.08 18.5307 415.931 18.68C415.781 18.8107 415.618 18.876 415.441 18.876C415.235 18.876 415.067 18.806 414.937 18.666C414.797 18.526 414.727 18.3627 414.727 18.176C414.727 17.9613 414.797 17.7933 414.937 17.672C415.058 17.5413 415.226 17.476 415.441 17.476ZM415.441 22.6C415.646 22.6 415.814 22.6653 415.945 22.796C416.085 22.9173 416.155 23.0853 416.155 23.3C416.155 23.4867 416.08 23.6547 415.931 23.804C415.781 23.9347 415.618 24 415.441 24C415.235 24 415.067 23.93 414.937 23.79C414.797 23.65 414.727 23.4867 414.727 23.3C414.727 23.0853 414.797 22.9173 414.937 22.796C415.058 22.6653 415.226 22.6 415.441 22.6ZM426.204 13.808C427.138 13.808 427.889 14.0507 428.458 14.536C429.018 15.0213 429.298 15.6747 429.298 16.496C429.298 17.644 428.757 18.4 427.674 18.764C428.253 18.9413 428.701 19.2353 429.018 19.646C429.345 20.0567 429.508 20.5513 429.508 21.13C429.508 22.026 429.196 22.7633 428.57 23.342C427.926 23.9113 427.114 24.196 426.134 24.196C425.248 24.196 424.506 23.9627 423.908 23.496C423.19 22.9453 422.788 22.1007 422.704 20.962H423.572C423.61 21.8113 423.908 22.46 424.468 22.908C424.916 23.272 425.467 23.454 426.12 23.454C426.876 23.454 427.497 23.2347 427.982 22.796C428.43 22.3573 428.654 21.8113 428.654 21.158C428.654 20.542 428.44 20.0473 428.01 19.674C427.6 19.3193 427.035 19.142 426.316 19.142H425.434V18.442H426.232C426.932 18.442 427.483 18.2787 427.884 17.952C428.258 17.6067 428.444 17.1353 428.444 16.538C428.444 15.95 428.253 15.474 427.87 15.11C427.469 14.746 426.914 14.564 426.204 14.564C425.495 14.564 424.94 14.7647 424.538 15.166C424.118 15.558 423.866 16.1133 423.782 16.832H422.928C423.012 15.8987 423.358 15.1567 423.964 14.606C424.543 14.074 425.29 13.808 426.204 13.808Z" fill="black"/>
</svg>
