<svg width="16" height="16" viewBox="0 0 16 16" fill="none" xmlns="http://www.w3.org/2000/svg">
<path d="M10.1748 12.3481C10.384 12.5703 10.99 12.475 11.0049 12.4761C11.7923 13.9002 11.3869 14.1256 11.3779 14.1304C9.56822 15.1415 5.02816 14.4808 4.66113 14.1021C4.39481 13.8287 5.08158 12.4911 5.09082 12.4731C5.35401 12.6813 5.92719 12.3541 5.9375 12.3481C6.26593 12.7487 7.36512 12.4797 7.37988 12.4761C8.00665 13.0334 8.73242 12.4761 8.73242 12.4761C9.37291 12.7721 10.1536 12.3595 10.1748 12.3481ZM7.80957 1.3667C7.84658 1.35626 10.4774 0.633648 9.75977 6.45361C9.0472 12.2523 8.01422 12.0683 7.99316 12.064C6.50825 11.5809 5.95136 4.89288 6.18555 3.16943C6.41988 1.44661 7.80957 1.3667 7.80957 1.3667ZM2.67969 3.18994C3.77322 1.57792 5.2619 2.9128 5.28223 2.93115C4.76908 7.41622 6.6327 11.9473 6.6377 11.9595C4.72641 11.4176 1.63255 4.7341 2.67969 3.18994ZM10.7119 2.93115C10.7363 2.90917 12.2225 1.58272 13.3145 3.18994C14.3642 4.73426 11.2705 11.4174 9.35645 11.9595C9.36518 11.9382 11.2245 7.4117 10.7119 2.93115ZM0.0146484 6.66553C-0.179319 4.38094 1.6475 4.93898 1.66016 4.94287C1.79565 7.744 4.8411 11.7875 4.84473 11.7886C3.6392 11.3847 0.209453 8.95836 0.0146484 6.66553ZM14.3369 4.94287C14.365 4.93433 16.1785 4.39075 15.9854 6.66553C15.7906 8.9607 12.3611 11.3844 11.1553 11.7886C11.1664 11.7737 14.1988 7.73922 14.3369 4.94287Z" fill="#1C5DFF"/>
</svg>
