<svg width="12" height="12" viewBox="0 0 12 12" fill="none" xmlns="http://www.w3.org/2000/svg">
<path d="M10.5 5H11H10.5ZM7.93652 9.0625L7.72106 8.61131L7.64358 8.64831L7.58288 8.70904L7.93652 9.0625ZM6 11L5.64645 11.3536L6.00009 11.7072L6.35364 11.3535L6 11ZM4.0625 9.0625L4.41605 8.70895L4.35542 8.64831L4.27805 8.61135L4.0625 9.0625ZM1.5 5H1H1.5ZM6 0.5V1C8.20914 1 10 2.79086 10 5H10.5H11C11 2.23858 8.76142 0 6 0V0.5ZM10.5 5H10C10 6.59191 9.0698 7.96723 7.72106 8.61131L7.93652 9.0625L8.15199 9.51369C9.83504 8.70997 11 6.99184 11 5H10.5ZM7.93652 9.0625L7.58288 8.70904L5.64636 10.6465L6 11L6.35364 11.3535L8.29017 9.41596L7.93652 9.0625ZM6 11L6.35355 10.6464L4.41605 8.70895L4.0625 9.0625L3.70895 9.41605L5.64645 11.3536L6 11ZM4.0625 9.0625L4.27805 8.61135C2.92977 7.96717 2 6.59172 2 5H1.5H1C1 6.99141 2.1643 8.70971 3.84695 9.51365L4.0625 9.0625ZM1.5 5H2C2 2.79086 3.79086 1 6 1V0.5V0C3.23858 0 1 2.23858 1 5H1.5Z" fill="black"/>
<circle cx="6" cy="5" r="1.5" stroke="black"/>
</svg>
